<?xml version="1.0" encoding="utf-8"?>
<!-- Generator: Adobe Illustrator 16.0.0, SVG Export Plug-In . SVG Version: 6.00 Build 0)  -->
<!DOCTYPE svg PUBLIC "-//W3C//DTD SVG 1.1//EN" "http://www.w3.org/Graphics/SVG/1.1/DTD/svg11.dtd">
<svg version="1.1" xmlns="http://www.w3.org/2000/svg" xmlns:xlink="http://www.w3.org/1999/xlink" x="0px" y="0px" width="1400px"
	 height="980px" viewBox="0 0 1400 980" enable-background="new 0 0 1400 980" xml:space="preserve">
<g id="BACKGROUND">
	<rect x="-5.721" y="-6.772" fill="#FFB762" width="1414.429" height="995.95"/>
</g>
<g id="OBJECTS">
	<g>
		<path fill="#0DA5CE" d="M236.144,231.609c0,0-106.226,51.183,12.468,154.215c0,0,50.145-0.459,4.521-92.856
			C246.086,278.696,232.46,259.969,236.144,231.609z"/>
		<path fill="none" stroke="#2E547B" stroke-miterlimit="10" d="M248.612,385.824c0,0-4.043-31.938-20.516-59.379
			c-16.472-27.442-16.079-59.107,8.047-94.835"/>
		<path fill="none" stroke="#2E547B" stroke-miterlimit="10" d="M269.968,369.836c0,0-7.364-13.566-29.976-17.901"/>
		<path fill="none" stroke="#2E547B" stroke-miterlimit="10" d="M227.271,365.355c0,0,0.231-17.062,10.227-19.902"/>
		<path fill="none" stroke="#2E547B" stroke-miterlimit="10" d="M224.934,320.696c0,0,28.949-10.88,43.884,11.894"/>
		<path fill="none" stroke="#2E547B" stroke-miterlimit="10" d="M208.647,342.018c0,0-1.619-25.505,13.155-28.335"/>
		<path fill="none" stroke="#2E547B" stroke-miterlimit="10" d="M216.981,292.961c0,0,24.577-17.387,36.152,0.006"/>
		<path fill="none" stroke="#2E547B" stroke-miterlimit="10" d="M192.544,298.724c0,0,10.977-14.336,24.21-13.191"/>
		<path fill="none" stroke="#2E547B" stroke-miterlimit="10" d="M220.777,262.281c0,0,10.085-8.556,19.172,3.426"/>
		<path fill="none" stroke="#2E547B" stroke-miterlimit="10" d="M198.981,267.767c0,0,13.387-16.069,24.047-11.733"/>
	</g>
	<path fill="#24578C" d="M180.812,302c-13.148-4.941-25.064-13.204-31.338-25.549c-5.891,5.435-9.627,12.771-12.901,20.086
		c-3.443,7.691-6.486,15.712-8.959,23.905c2.685,3.361,4.968,6.095,5.73,7.056c7.694,9.697,20.028,24.168,31.154,29.912
		c-6.617,0.825-12.069-4.738-18.062-7.66c-4.246-2.07-8.985-2.841-13.616-3.77c-3.508-0.703-6.992-1.521-10.453-2.43
		c-1.331,8.969-1.798,17.976-1.195,26.836c8.649,3.546,17.792,5.888,27.088,6.874c4.424,0.469,10.411,0.171,13.798,2.838
		c-4.707,6.711-17.297,5.804-24.571,5.539c-4.75-0.173-9.5-0.345-14.249-0.518c1.441,6.601,3.582,13.056,6.532,19.28
		c0.897,1.893,1.9,3.736,2.958,5.547c6.574-0.282,13.131-0.926,19.627-1.998c5.73-0.945,21.719-7.704,25.767-3.94
		c-2.615,2-5.636,3.501-8.555,5.123c-2.051,1.14-4.104,2.28-6.217,3.3c-3.337,1.61-6.812,2.914-10.282,4.214
		c-3.912,1.467-7.824,2.934-11.735,4.4c9.808,9.389,23.588,13.85,37.169,14.933c22.456,1.79,45.432-5.083,63.463-18.53
		c10.05-7.494,14.346-8.826,26.406-11.857c10.402-2.614,20.95-6.84,27.595-15.69c3.027-4.032,5.028-8.774,6.225-13.672
		c3.541-14.498-0.234-30.59-9.853-42.001c-1.994-2.366-4.2-4.492-6.559-6.426c-12.324,13.22-31.901,34.761-37.496,36.529
		c2.956-11.913,9.221-23.677,15.714-34.035c2.341-3.735,4.868-7.506,6.787-11.467c-8.086-3.491-16.91-5.651-25.61-6.958
		c-0.458-0.069-0.917-0.116-1.375-0.181c-4.015,12.918-8.016,25.84-12.07,38.746c-1.121,3.568-2.814,13.747-8.969,10.075
		c-2.913-1.738-1.128-16.953-1.188-20.341c-0.179-10.247-0.356-20.52,0.037-30.756c-9.875-0.838-19.73-1.759-29.377-3.975
		c-0.577-0.133-1.154-0.286-1.731-0.43c-1.843,7.574-3.333,15.788-3.73,17.088C184.287,315.684,182.417,308.873,180.812,302z
		 M247.424,393.294c3.351-3.708,8.315-5.639,13.273-6.267c4.958-0.627,9.981-0.075,14.949,0.478c1.093,0.122,2.296,0.3,3.004,1.142
		c1.046,1.245,0.316,3.296-1.043,4.188c-1.36,0.893-3.084,0.951-4.71,0.98l-1.888-0.902c-7.106,2.462-14.402,4.377-21.801,5.725
		c-0.681,0.124-1.406,0.239-2.045-0.027C245.236,397.808,246.024,394.843,247.424,393.294z M163.529,328.671
		c0.543,2.837-0.298,6.145-2.752,7.669l-2.264-1.187c-7.117-5.468-13.064-12.45-17.331-20.346c2.832-2.171,6.89-0.572,10.023,1.135
		C156.574,318.866,162.378,322.667,163.529,328.671z M184.048,394.101l-2.83,0.712c-7.61,1.992-15.513,2.863-23.375,2.577
		c-1.196-1.313,0.083-3.414,1.54-4.431c4.953-3.455,11.567-2.872,17.562-2.146C179.642,391.139,182.738,391.723,184.048,394.101z
		 M203.104,418.551c13.317-3.233,8.627,4.859-1.192,7.309c-11.178,2.79-23.077,3.166-34.439,1.342
		C179.35,424.318,191.227,421.435,203.104,418.551z"/>
	<g>
		<g>
			<path fill="#24578C" d="M1197.156,272.575c0,0,95.398,82.576-56.012,155.792c0,0-51.663-14.5,21.303-97.171
				C1173.718,318.427,1193.028,302.896,1197.156,272.575z"/>
			<path fill="none" stroke="#2D679B" stroke-miterlimit="10" d="M1141.145,428.367c0,0,13.109-31.855,37.798-55.591
				c24.689-23.736,33.14-56.551,18.214-100.201"/>
			<path fill="none" stroke="#2D679B" stroke-miterlimit="10" d="M1123.56,405.88c0,0,11.399-11.952,35.966-10.104"/>
			<path fill="none" stroke="#2D679B" stroke-miterlimit="10" d="M1168.911,413.195c0,0,4.534-17.687-4.996-23.416"/>
			<path fill="none" stroke="#2D679B" stroke-miterlimit="10" d="M1183.816,367.722c0,0-26.856-19.334-48.651,0.01"/>
			<path fill="none" stroke="#2D679B" stroke-miterlimit="10" d="M1194.675,394.3c0,0,8.806-25.891-5.661-32.945"/>
			<path fill="none" stroke="#2D679B" stroke-miterlimit="10" d="M1199.788,341.302c0,0-20.521-24.832-37.341-10.105"/>
			<path fill="none" stroke="#2D679B" stroke-miterlimit="10" d="M1223.416,354.089c0,0-7.327-17.878-21.315-20.396"/>
			<path fill="none" stroke="#2D679B" stroke-miterlimit="10" d="M1204.449,308.552c0,0-8.023-11.658-20.761-1.824"/>
			<path fill="none" stroke="#2D679B" stroke-miterlimit="10" d="M1225.427,320.314c0,0-9.332-20.341-21.556-18.845"/>
		</g>
	</g>
	<path fill="#0DA5CE" d="M1259.047,371.097c0.015-1.435,1.132-10.168,1.689-18.373c-0.626-0.039-1.255-0.068-1.877-0.118
		c-10.406-0.844-20.609-3.056-30.807-5.357c-2.865,10.418-6.314,20.692-9.757,30.94c-1.139,3.389-4.188,19.257-7.671,20.077
		c-7.359,1.733-5.82-9.042-5.812-12.987c0.032-14.269,0.123-28.537,0.199-42.806c-0.48-0.081-0.958-0.179-1.439-0.256
		c-9.165-1.456-18.727-2.093-27.97-1.157c0.669,4.594,2.009,9.191,3.174,13.692c3.231,12.484,5.786,26.309,4.966,39.229
		c-5.063-3.559-17.891-31.454-26.075-48.673c-2.987,1.194-5.883,2.629-8.642,4.373c-13.306,8.413-22.226,23.394-23.281,39.1
		c-0.356,5.306,0.146,10.712,1.906,15.73c3.863,11.016,13.125,18.624,22.753,24.565c11.163,6.888,15.059,9.595,22.778,20.332
		c13.851,19.263,34.767,33.49,57.919,38.841c14.002,3.235,29.279,3.138,42.132-3.182c-3.467-2.72-6.934-5.441-10.4-8.161
		c-3.074-2.413-6.154-4.83-8.997-7.512c-1.801-1.698-3.501-3.499-5.201-5.298c-2.419-2.561-4.979-5.033-6.972-7.875
		c5.269-2.496,19.195,9.392,24.656,12.167c6.191,3.146,12.58,5.881,19.101,8.258c1.641-1.485,3.236-3.02,4.741-4.637
		c4.948-5.319,9.157-11.129,12.707-17.309c-4.831-1.339-9.662-2.677-14.493-4.016c-7.399-2.05-20.35-5.147-22.945-13.394
		c4.255-1.603,10.181,0.603,14.779,1.54c9.662,1.969,19.602,2.525,29.429,1.713c3.428-8.718,5.826-17.924,7.343-27.367
		c-3.77-0.188-7.533-0.475-11.284-0.885c-4.953-0.542-9.964-1.275-14.894-0.545c-6.957,1.03-14.211,4.888-20.603,1.952
		c13.018-2.234,30.028-12.858,40.854-20.16c1.073-0.724,4.239-2.746,8.009-5.271c0.123-9.027-0.384-18.061-1.396-26.892
		c-0.964-8.398-2.385-16.966-6.578-24.307c-10.24,10.416-24.854,14.931-39.648,15.713
		C1267.637,359.184,1263.588,365.437,1259.047,371.097z M1173.953,428.809c-0.727,0.064-1.42-0.283-2.064-0.624
		c-7.012-3.71-13.738-7.96-20.101-12.698l-2.186,0.306c-1.626-0.547-3.341-1.154-4.424-2.485s-1.164-3.625,0.285-4.543
		c0.979-0.621,2.246-0.417,3.384-0.192c5.171,1.026,10.398,2.069,15.185,4.279c4.786,2.209,9.163,5.732,11.353,10.528
		C1176.299,425.382,1176.147,428.615,1173.953,428.809z M1296.772,376.23c3.694-0.719,8.284-1.035,10.441,2.05
		c-6.805,6.582-15.009,11.71-23.906,14.942l-2.655,0.473c-1.982-2.313-1.775-5.908-0.325-8.588
		C1283.396,379.436,1290.443,377.462,1296.772,376.23z M1247.049,443.326c6.26,1.179,13.096,2.699,16.977,7.75
		c1.142,1.486,1.759,4.006,0.138,4.946c-7.997-2.215-15.667-5.608-22.686-10.035l-2.619-1.617
		C1240.934,442.396,1244.233,442.795,1247.049,443.326z M1244.986,482.935c-12.006-1.783-23.853-5.951-34.205-12.315
		c-9.094-5.59-11.233-15.222,1.129-7.73C1222.936,469.571,1233.961,476.253,1244.986,482.935z"/>
	<path fill="#FFFEF5" d="M211.414,404.432c0,0,307.474-165.7,745.137-98.737c437.664,66.963,413.904,513.997,161.988,558.487
		c-251.917,44.489-367.915-91.072-531.003-98.186c-163.088-7.113-257.22,83.267-381.616,38.038
		C81.523,758.807-38.984,574.855,211.414,404.432z"/>
	<path fill="#EDECE6" d="M390.924,375.75c0,0,540.367-86.529,734.713,44.376c194.346,130.906,79.694,412.892-187.714,349.895
		c-267.407-62.997-315.189-82.885-463.04-59.441s-322.908-14.235-318.537-75.629C160.717,573.558,190.037,452.807,390.924,375.75z"
		/>
	<path fill="#E2E1DE" d="M623.546,338.611c0,0-148.663,0-232.622,37.138c-23.4,10.351-28.281,70.232,90.407,60.51
		c118.688-9.722,133.688-34.907,178.685-23.064c44.998,11.843,92.137,54.29,147.278,43.816
		c55.142-10.473,69.821-76.362,46.066-84.583C829.606,364.208,762.156,344.427,623.546,338.611z"/>
	<path fill="#E2E1DE" d="M540.476,542.889c0,0-109.887,42.058-151.166,24.35c-41.279-17.707-405.914,77.989-187.598,127.636
		c218.316,49.647,250.505-7.563,317.657-8.957C586.52,684.524,705.921,582.744,540.476,542.889z"/>
	<g>
		<path fill="#2A5081" d="M768.704,347.628c0,0-100.11-94.296,38.59-150.645c0,0,33.186,9.527,6.519,75.625
			C787.145,338.708,772.905,316.846,768.704,347.628z"/>
		<path fill="none" stroke="#0BA4CD" stroke-miterlimit="10" d="M807.294,196.983c0,0-59.821,50.491-41.729,147.444"/>
		<path fill="none" stroke="#0BA4CD" stroke-miterlimit="10" d="M821.838,213.25c0,0-24.519,23.789-37.958,13.42"/>
		<path fill="none" stroke="#0BA4CD" stroke-miterlimit="10" d="M769.747,258.523c0,0,45.343,10.418,52.56-13.049"/>
		<path fill="none" stroke="#0BA4CD" stroke-miterlimit="10" d="M762.215,304.486c0,0,33.25,8.234,41.615-9.856"/>
		<path fill="none" stroke="#0BA4CD" stroke-miterlimit="10" d="M734.391,267.092c0,0,5.302,21.054,28.177,29.94"/>
		<path fill="none" stroke="#0BA4CD" stroke-miterlimit="10" d="M753.282,230.725c0,0,0.11,24.986,14.219,33.25"/>
		<path fill="none" stroke="#0BA4CD" stroke-miterlimit="10" d="M775.441,213.019c0,0-5.454,14.393,5.481,18.937"/>
	</g>
	<g>
		<path fill="none" stroke="#35527E" stroke-miterlimit="10" d="M841.648,237.933c0,0-39.439,18.493-66.102,74.992"/>
		<path fill="#12B3D8" d="M839.302,239.169c0,0,11.285-21.384,28.828-20.925C868.13,218.245,854.055,239.831,839.302,239.169z"/>
		<path fill="#039ECA" d="M824.667,249.148c0,0,14.424-16.245,8.28-34.435C832.947,214.714,822.052,232.387,824.667,249.148z"/>
		<path fill="#12B3D8" d="M850.088,255.033c0,0-14.796-13.558-28.383-3.468C821.705,251.565,838.33,262.604,850.088,255.033z"/>
		<path fill="#12B3D8" d="M814.788,229.338c0,0,6.192,14.029-5.547,33.911C809.241,263.249,800.32,248.302,814.788,229.338z"/>
		<path fill="#039ECA" d="M835.97,265.639c0,0-20.827-10.79-31.897,3.258C804.072,268.897,826.61,276.143,835.97,265.639z"/>
		<path fill="#039ECA" d="M799.063,247.158c0,0,6.682,12.078-3.113,31.757C795.95,278.915,787.216,269.569,799.063,247.158z"/>
		<path fill="#12B3D8" d="M820.62,277.534c0,0-21.051-7.844-30.343,8.418C790.277,285.952,807.4,291.961,820.62,277.534z"/>
	</g>
	<g>
		<path fill="#2A5081" d="M1212.144,663.522c0,0-92.471-101.799,50.192-147.186c0,0,32.344,12.08,0.615,75.903
			S1218.727,633.161,1212.144,663.522z"/>
		<path fill="none" stroke="#0BA4CD" stroke-miterlimit="10" d="M1262.336,516.337c0,0-63.568,45.684-53.074,143.751"/>
		<path fill="none" stroke="#0BA4CD" stroke-miterlimit="10" d="M1275.57,533.686c0,0-26.295,21.809-38.887,10.427"/>
		<path fill="none" stroke="#0BA4CD" stroke-miterlimit="10" d="M1220.115,574.77c0,0,44.396,13.914,53.415-8.921"/>
		<path fill="none" stroke="#0BA4CD" stroke-miterlimit="10" d="M1209.03,620.007c0,0,32.508,10.796,42.256-6.59"/>
		<path fill="none" stroke="#0BA4CD" stroke-miterlimit="10" d="M1184.199,580.562c0,0,3.648,21.402,25.762,32.042"/>
		<path fill="none" stroke="#0BA4CD" stroke-miterlimit="10" d="M1205.862,545.774c0,0-1.833,24.919,11.589,34.255"/>
		<path fill="none" stroke="#0BA4CD" stroke-miterlimit="10" d="M1229.332,529.846c0,0-6.557,13.926,3.992,19.306"/>
	</g>
	<g>
		<path fill="none" stroke="#35527E" stroke-miterlimit="10" d="M1287.051,595.47c0,0-40.76,15.369-71.736,69.622"/>
		<path fill="#12B3D8" d="M1284.615,596.521c0,0,12.914-20.441,30.368-18.619C1314.983,577.901,1299.272,598.327,1284.615,596.521z"
			/>
		<path fill="#039ECA" d="M1269.248,605.33c0,0,15.645-15.073,10.935-33.686C1280.183,571.645,1267.944,588.416,1269.248,605.33z"/>
		<path fill="#12B3D8" d="M1294.134,613.175c0,0-13.695-14.667-28.027-5.665C1266.106,607.51,1281.823,619.809,1294.134,613.175z"/>
		<path fill="#12B3D8" d="M1260.939,584.812c0,0,5.082,14.469-8.167,33.377C1252.772,618.188,1245.041,602.592,1260.939,584.812z"/>
		<path fill="#039ECA" d="M1279.233,622.65c0,0-19.925-12.377-32.054,0.767C1247.18,623.417,1269.085,632.395,1279.233,622.65z"/>
		<path fill="#039ECA" d="M1243.877,601.354c0,0,5.722,12.562-5.575,31.419C1238.302,632.773,1230.321,622.776,1243.877,601.354z"/>
		<path fill="#12B3D8" d="M1263.005,633.315c0,0-20.376-9.459-30.905,6.031C1232.1,639.347,1248.702,646.67,1263.005,633.315z"/>
	</g>
	<g>
		<path fill="#45D7FF" d="M709.47,416.308c0,0,124.166,24.119,145.852,3.109c14.889-14.425,7.087-60.546,0.732-88.042
			c-2.875-12.442-14.095-21.143-26.858-20.766c-37.735,1.115-113.83,4.817-130.857,16.709
			C675.477,343.286,693.392,413.467,709.47,416.308z"/>
		<path fill="#15AACC" d="M855.321,419.417c7.17-6.946,9.075-21.244,8.417-37.271c-36.256-13.481-112.315,1.731-137.106,7.514
			c-30.258,7.058-17.162,26.648-17.162,26.648S833.636,440.427,855.321,419.417z"/>
		<path fill="#0DCBFF" d="M778.371,380.196c0,0-13.497-33.855-8.512-66.501c4.986-32.646,64.753-21.835,72.903-14.983
			c8.15,6.852,21.362,31.884,20.976,83.434C863.738,382.146,837.551,368.432,778.371,380.196z"/>
		<path fill="none" stroke="#4C2C1C" stroke-miterlimit="10" stroke-dasharray="5" d="M691.185,336.494
			c0,0,1.383,61.621,15.735,67.622c14.354,6.002,99.671,3.886,99.671,3.886"/>
		<path fill="#15A4BC" d="M812.092,377.021c0,0-11.73,38.56-0.962,50.977s39.42,8.182,48.272-6.476
			c8.852-14.657,4.336-39.376,4.336-39.376S849.59,370.023,812.092,377.021z"/>
		<path fill="none" stroke="#4C2C1C" stroke-miterlimit="10" stroke-dasharray="5" d="M809.639,425.867
			c0,0,0.195-18.211,2.922-32.084c1.271-6.47,6.618-11.378,13.184-11.987c5.125-0.475,12.358-0.068,22.348,2.499"/>
		<circle fill="#FFFFFF" cx="847.92" cy="416.376" r="5.44"/>
		<path fill="#15A4BC" d="M683.297,387.663c0,0,11.779,5.671,13.338,4.181l-0.967,7.04
			C695.669,398.884,684.875,400.115,683.297,387.663z"/>
		<path fill="#15A4BC" d="M684.167,369.949c0,0-2.265-8.513,4.799-14.209c0,0,2.232,5.125,0.555,7.629
			C687.843,365.873,684.167,369.949,684.167,369.949z"/>
		
			<line fill="none" stroke="#4C2C1C" stroke-miterlimit="10" stroke-dasharray="5" x1="809.461" y1="295.997" x2="815.183" y2="344.572"/>
		<path fill="none" stroke="#4C2C1C" stroke-miterlimit="10" stroke-dasharray="5" d="M771.088,308.919
			c0,0,0.463,23.727,4.689,41.262c2.352,9.755,10.663,16.95,20.666,17.764c9.475,0.771,23.89,0.55,44.185-3.194"/>
		<path fill="#45D7FF" d="M683.904,362.91c0,0-12.653,23.132,0.562,31.014c9.19,5.48-0.401-11.107,1.596-18.459
			S683.904,362.91,683.904,362.91z"/>
		<path fill="#FFFFFF" d="M741.087,358.939l-2.449-19.318c-0.344-2.717-2.825-4.64-5.542-4.296l-11.78,1.494
			c-2.717,0.344-4.64,2.826-4.296,5.542l2.449,19.319c0.345,2.716,2.826,4.64,5.543,4.295l11.78-1.494
			C739.509,364.138,741.432,361.656,741.087,358.939z"/>
	</g>
	<g>
		
			<rect x="1187.858" y="163.262" transform="matrix(0.897 0.442 -0.442 0.897 195.6796 -509.5818)" fill="#2C5E84" width="7.229" height="3.804"/>
		<path fill="#2C5E84" d="M1196.416,166.752l-9.214-4.54l0.084-0.17c1.254-2.544,4.332-3.591,6.877-2.337l0,0
			c2.544,1.253,3.591,4.333,2.337,6.877L1196.416,166.752z"/>
		
			<rect x="1077.702" y="344.358" transform="matrix(0.897 0.442 -0.442 0.897 267.2668 -450.8116)" fill="#2C5E84" width="46.793" height="7.609"/>
		
			<rect x="1089.014" y="339.337" transform="matrix(0.897 0.442 -0.442 0.897 264.9308 -452.7279)" fill="#336797" width="30.054" height="5.706"/>
		<polygon fill="#4187AA" points="1118.237,340.492 1096.738,329.898 1091.822,332.989 1118.781,346.273 		"/>
		
			<rect x="1112.503" y="312.643" transform="matrix(0.897 0.442 -0.442 0.897 256.0945 -460.2715)" fill="#2C5E84" width="6.467" height="13.54"/>
		<path fill="#336797" d="M1113.249,324.462L1113.249,324.462c-3.299-1.625-7.29-0.269-8.915,3.03l-2.438,4.948l11.943,5.885
			l2.438-4.948C1117.903,330.079,1116.547,326.087,1113.249,324.462z"/>
		
			<rect x="1138.423" y="226.722" transform="matrix(0.8971 0.4419 -0.4419 0.8971 235.9769 -476.4335)" fill="#2C5E84" width="4.358" height="83.121"/>
		<path fill="#4187AA" d="M1118.001,322.563l-5.801-2.858c-1.036-0.511-1.463-1.765-0.952-2.802l0,0
			c0.511-1.037,1.766-1.463,2.802-0.952l5.802,2.858c1.036,0.511,1.462,1.765,0.951,2.802l0,0
			C1120.292,322.647,1119.038,323.074,1118.001,322.563z"/>
		<path fill="#4187AA" d="M1120.032,315.505l-4.007-1.974c-1.824-0.899-2.37-3.224-1.126-4.794l5.56-7.017l6.237,3.074l-2.177,8.683
			C1124.032,315.421,1121.856,316.404,1120.032,315.505z"/>
		<path fill="#4187AA" d="M1158.012,233.074L1158.012,233.074c-1.791-0.882-2.527-3.049-1.645-4.839l2.102-4.266l6.484,3.194
			l-2.103,4.266C1161.969,233.22,1159.802,233.956,1158.012,233.074z"/>
		
			<rect x="1157.292" y="224.123" transform="matrix(0.897 0.442 -0.442 0.897 219.064 -490.4546)" fill="#2C5E84" width="9.511" height="1.522"/>
		<polygon fill="#2C5E84" points="1172.079,223.89 1156.723,216.323 1157.197,210.195 1176.649,219.78 		"/>
		<polygon fill="#2C5E84" points="1165.967,225.967 1158.801,222.436 1159.794,217.836 1169.008,222.376 		"/>
		<path fill="#E5F4F9" d="M1167.568,179.681c-0.505,1.023-10.371,30.515-10.371,30.515l19.452,9.584l18.219-26.647l-14.006-9.446
			L1167.568,179.681z"/>
		<line fill="none" stroke="#2C5E84" stroke-miterlimit="10" x1="1180.862" y1="183.687" x2="1165.729" y2="214.399"/>
		<polygon fill="#2C5E84" points="1195.041,193.642 1167.4,180.022 1167.188,172.707 1201.312,189.522 		"/>
		<polygon fill="#4187AA" points="1199.497,184.599 1171.855,170.979 1167.188,172.707 1201.312,189.522 		"/>
		<rect x="1173.31" y="172.331" fill="none" stroke="#000000" stroke-miterlimit="10" width="0" height="0"/>
		<path fill="#336797" d="M1193.182,166.431l-3.413-1.682c-6.597-3.25-14.578-0.538-17.829,6.059l0,0l27.301,13.452l0,0
			C1202.49,177.663,1199.777,169.681,1193.182,166.431z"/>
		<path fill="#4187AA" d="M1189.769,164.749c-0.114-0.056-0.229-0.106-0.346-0.159l-5.88,11.935l3.753,1.85l5.886-11.944
			L1189.769,164.749z"/>
	</g>
	<g>
		
			<rect x="370.657" y="125.93" transform="matrix(0.9626 -0.2708 0.2708 0.9626 -20.6317 106.1113)" fill="#2C5E84" width="7.228" height="3.804"/>
		<path fill="#2C5E84" d="M379.008,125.709l-9.888,2.781l-0.052-0.183c-0.768-2.73,0.823-5.566,3.553-6.334l0,0
			c2.73-0.768,5.567,0.823,6.335,3.553L379.008,125.709z"/>
		
			<rect x="405.961" y="320.551" transform="matrix(0.9626 -0.2708 0.2708 0.9626 -71.7864 128.373)" fill="#2C5E84" width="46.792" height="7.609"/>
		
			<rect x="412.528" y="315.094" transform="matrix(0.9626 -0.2708 0.2708 0.9626 -70.1188 127.6465)" fill="#336797" width="30.054" height="5.706"/>
		<polygon fill="#4187AA" points="436.979,307.194 413.907,313.684 412.316,319.269 441.248,311.131 		"/>
		
			<rect x="417.797" y="286.418" transform="matrix(0.9627 -0.2707 0.2707 0.9627 -63.6514 124.9347)" fill="#2C5E84" width="6.468" height="13.539"/>
		<path fill="#336797" d="M422.555,298.605L422.555,298.605c-3.54,0.996-5.602,4.672-4.606,8.211l1.494,5.31l12.818-3.605
			l-1.494-5.31C429.771,299.672,426.094,297.61,422.555,298.605z"/>
		
			<rect x="403.173" y="196.975" transform="matrix(0.9626 -0.2709 0.2709 0.9626 -49.4565 118.7085)" fill="#2C5E84" width="4.357" height="83.12"/>
		<path fill="#4187AA" d="M424.82,294.016l-6.226,1.751c-1.112,0.313-2.268-0.335-2.581-1.447l0,0
			c-0.312-1.113,0.335-2.268,1.448-2.581l6.226-1.751c1.112-0.313,2.268,0.335,2.581,1.448l0,0
			C426.581,292.548,425.933,293.703,424.82,294.016z"/>
		<path fill="#4187AA" d="M421.614,287.409l-4.3,1.209c-1.958,0.551-3.917-0.813-4.042-2.813l-0.555-8.935l6.694-1.883l4.184,7.914
			C424.533,284.672,423.572,286.859,421.614,287.409z"/>
		<path fill="#4187AA" d="M394.77,200.71L394.77,200.71c-1.921,0.541-3.917-0.579-4.458-2.5l-1.288-4.578l6.958-1.957l1.288,4.578
			C397.811,198.174,396.691,200.169,394.77,200.71z"/>
		
			<rect x="387.542" y="191.16" transform="matrix(0.9626 -0.2708 0.2708 0.9626 -37.312 113.3928)" fill="#2C5E84" width="9.511" height="1.522"/>
		<polygon fill="#2C5E84" points="399.095,184.476 382.615,189.111 378.873,184.236 399.747,178.365 		"/>
		<polygon fill="#2C5E84" points="395.937,190.106 388.246,192.27 385.911,188.185 395.799,185.403 		"/>
		<path fill="#E5F4F9" d="M366.191,154.607c0.309,1.099,12.682,29.629,12.682,29.629l20.874-5.872l-4.258-31.999l-16.732,2.335
			L366.191,154.607z"/>
		<line fill="none" stroke="#2C5E84" stroke-miterlimit="10" x1="378.757" y1="148.701" x2="388.028" y2="181.661"/>
		<polygon fill="#2C5E84" points="395.958,146.629 366.294,154.973 361.248,149.675 397.869,139.374 		"/>
		<polygon fill="#4187AA" points="393.229,136.925 363.565,145.269 361.248,149.675 397.869,139.374 		"/>
		<rect x="365.55" y="145.303" fill="none" stroke="#000000" stroke-miterlimit="10" width="0" height="0"/>
		<path fill="#336797" d="M376.388,127.632l-3.662,1.03c-7.079,1.991-11.204,9.344-9.212,16.423l0,0l29.297-8.241l0,0
			C390.819,129.766,383.467,125.641,376.388,127.632z"/>
		<path fill="#4187AA" d="M372.726,128.663c-0.123,0.034-0.243,0.074-0.364,0.112l3.603,12.808l4.028-1.133l-3.605-12.817
			L372.726,128.663z"/>
	</g>
	<g enable-background="new    ">
		<g>
			<polygon fill="#C6966E" points="634.606,494.15 562.736,452.501 567.157,453.235 639.026,494.885 			"/>
		</g>
		<g>
			<path fill="#A37657" d="M634.606,494.15l4.42,0.734l-25.992,80.752l-0.183,0.568l-0.203,0.629
				c-0.36,1.123-1.237,1.99-2.171,2.259c-0.301,0.087-0.608,0.111-0.905,0.062c-0.322-0.054-0.6-0.188-0.827-0.386
				c-0.635-0.549-0.868-1.579-0.517-2.673l0.871-2.708L634.606,494.15z"/>
		</g>
		<g>
			<polygon fill="#B28562" points="609.1,573.389 537.23,531.74 562.736,452.501 634.606,494.15 			"/>
		</g>
		<g>
			<polygon fill="#E8C0A3" points="607.37,568.879 540.863,530.337 564.466,457.011 630.973,495.553 			"/>
		</g>
		<g>
			<path fill="#A37657" d="M609.1,573.389l-0.871,2.707c-0.351,1.095-0.118,2.125,0.517,2.674l-70.264,20.219l-0.081-5.257
				L609.1,573.389z"/>
		</g>
		<g>
			<polygon fill="#B28562" points="538.481,598.988 466.611,557.339 466.531,552.083 538.4,593.731 			"/>
		</g>
		<g>
			<polygon fill="#C6966E" points="538.4,593.731 466.531,552.083 537.23,531.739 609.1,573.389 			"/>
		</g>
		<g>
			<polygon fill="#B78662" points="540.972,587.634 480.07,552.341 539.98,535.103 600.881,570.396 			"/>
		</g>
	</g>
	<g>
		<path fill="#35527E" d="M236.601,651.545c0,0-11.635-8.966-25.711-31.785c-12.435-20.159-65.386-43.902-119.344-40.337
			c0,0,3.285,87.28,110.27,74.464C210.469,652.851,225.424,646.812,236.601,651.545z"/>
		<path fill="none" stroke="#6488BC" stroke-miterlimit="10" d="M94.658,581.333c0,0,67.321,46.456,136.919,68.287"/>
		<path fill="none" stroke="#6488BC" stroke-miterlimit="10" d="M98.111,599.061c0,0,14.853,2.28,25.414,0.446"/>
		<path fill="none" stroke="#6488BC" stroke-miterlimit="10" d="M103.383,612.104c0,0,28.104,1.94,40.012-0.888"/>
		<path fill="none" stroke="#6488BC" stroke-miterlimit="10" d="M115.497,629.451c0,0,31.058,2.821,46.625-8.758"/>
		<path fill="none" stroke="#6488BC" stroke-miterlimit="10" d="M135.953,644.478c0,0,35.187-2.741,41.044-16.521"/>
		<path fill="none" stroke="#6488BC" stroke-miterlimit="10" d="M160.924,652.199c0,0,21.551,2.591,34.674-15.922"/>
		<path fill="none" stroke="#6488BC" stroke-miterlimit="10" d="M194.413,653.026c0,0,9.725-1.729,14.599-11.321"/>
		<path fill="none" stroke="#6488BC" stroke-miterlimit="10" d="M114.68,581.267c0,0,7.692,10.136,7.307,17.326"/>
		<path fill="none" stroke="#6488BC" stroke-miterlimit="10" d="M141.891,584.959c0,0,5.481,15.575,0.33,25.224"/>
		<path fill="none" stroke="#6488BC" stroke-miterlimit="10" d="M158.231,589.261c0,0,7.484,18.332,2.332,30.642"/>
		<path fill="none" stroke="#6488BC" stroke-miterlimit="10" d="M181.716,598.699c0,0,1.029,20.023-5.972,28.666"/>
		<path fill="none" stroke="#6488BC" stroke-miterlimit="10" d="M192.649,604.963c0,0,6.71,18.452,1.362,30.64"/>
		<path fill="none" stroke="#6488BC" stroke-miterlimit="10" d="M208.636,619.854c0,0,3.715,9.023-1.013,21.312"/>
	</g>
	<g>
		<path fill="none" stroke="#35527E" stroke-miterlimit="10" d="M147.909,519.49c0,0,7.884,70.873,81.409,141.965"/>
		<path fill="#12B3D8" d="M148.589,523.779c0,0-27.199-28.757-17.244-55.706C131.345,468.073,157.387,501.261,148.589,523.779z"/>
		<path fill="#039ECA" d="M156.346,551.72c0,0-17.58-30.915-49.009-30.976C107.337,520.744,128.988,546.943,156.346,551.72z"/>
		<path fill="#12B3D8" d="M178.859,515.42c0,0-28.809,15.789-20.328,42.164C158.531,557.584,184.4,537.631,178.859,515.42z"/>
		<path fill="#12B3D8" d="M120.436,556.596c0,0,25.007-2.207,49.638,26.462C170.074,583.058,142.207,589.011,120.436,556.596z"/>
		<path fill="#039ECA" d="M187.86,542.889c0,0-27.696,26.597-11.754,51.156C176.105,594.045,199.21,562.93,187.86,542.889z"/>
		<path fill="#039ECA" d="M139.772,590.356c0,0,22.241-3.993,47.582,21.557C187.354,611.913,168.267,620.526,139.772,590.356z"/>
		<path fill="#12B3D8" d="M198.21,572.947c0,0-23.249,28.494-2.938,51.464C195.271,624.411,213.606,601.039,198.21,572.947z"/>
	</g>
	<g>
		<path fill="#0B4177" d="M309.937,551.438l74.414-22.301l55.338-16.581c0.635-0.188,1.28-0.35,1.929-0.46
			c8.927-1.686,17.91,3.425,20.924,12.206c3.098,9.018-1.144,18.894-9.803,22.875l-1.743,0.803l-91.508,56.834
			c-11.373,7.063-24.996,9.562-38.134,6.994l-11.355-2.219L309.937,551.438z"/>
		<path fill="#0B4177" d="M458.482,509.705c5.889,1.227,11.108,5.352,13.401,11.545l46.863,126.919l7.413,20.076l-11.594,4.614
			l-11.856-21.35l-60.143-108.305l-3.76-6.771c-1.086-1.967-1.782-4.041-2.1-6.137c-1.092-7.213,2.236-14.676,8.932-18.535
			C449.716,509.407,454.27,508.815,458.482,509.705z"/>
		<polygon fill="#0B4177" points="526.165,668.249 542.373,675.246 514.368,679 514.359,672.826 		"/>
		<path fill="#21C7ED" d="M407.437,525.112l-63.601-75.763c-8.968-10.683-6.569-26.803,5.12-34.413l0,0
			c11.406-7.424,26.722-3.501,33.153,8.492l46.749,87.176c3.208,5.982,1.275,13.425-4.437,17.091l0,0
			C418.915,531.229,411.643,530.122,407.437,525.112z"/>
		<path fill="#21C7ED" d="M511.291,510.313l-91.562,19.335c-7.101,1.5-14.032-3.182-15.293-10.329h0
			c-1.322-7.494,4.129-14.486,11.719-15.033l93.466-6.73L511.291,510.313z"/>
		<path fill="#F4A484" d="M508.569,499.037c0,0,5.688-7.272,9.998-7.496c4.31-0.224,0.163,5.871,0.163,5.871
			s16.404-4.174,16.682,3.387c0.277,7.56-14.728,12.027-25.109,9.083L508.569,499.037z"/>
		<path fill="#26D1FF" d="M251.296,405.293l105.612,5.128c10.994,0.534,19.358,10.084,18.419,21.05
			c-2.643,30.892-9.206,91.517-22.873,139.451c0,0-28.413,7.714-49.582,6.687c-18.145-0.881-42.695-17.78-42.695-17.78
			C246.146,474.274,251.296,405.293,251.296,405.293"/>
		<path fill="#0A468F" d="M413.012,533.979c3.025,9.034-1.306,18.891-9.996,22.791l-1.792,0.802l-42.762,19.172L312.68,607.97
			c-17.436,11.893-41.368,2.397-45.908-18.213l-6.593-29.928l25.993-7.548l104.091-30.238c2.231-0.656,4.494-0.86,6.682-0.678
			C404.126,521.957,410.592,526.744,413.012,533.979z"/>
		<path fill="#0A468F" d="M486.216,670.928l-11.127,5.659l-12.312-17.994l-75.794-110.801c-0.324-0.473-0.625-0.958-0.877-1.449
			c-1.282-2.268-2.007-4.722-2.232-7.195c-0.57-6.271,2.126-12.667,7.63-16.556c8.445-5.977,19.928-3.694,25.579,4.523
			c0.535,0.771,1.015,1.607,1.437,2.486l59.035,123.245L486.216,670.928z"/>
		<polygon fill="#0B4177" points="486.212,670.927 503,676.389 475.465,682.727 474.883,676.58 		"/>
		<path fill="#FFB18E" d="M268.39,515.017c0,0,6.982-6.041,11.254-5.431c4.272,0.61-0.971,5.793-0.971,5.793
			s16.901-0.938,15.717,6.534c-1.183,7.473-16.768,8.968-26.388,4.08L268.39,515.017z"/>
		<polygon fill="#FFB18E" points="320.407,431.462 300.85,408.247 306.907,387.888 329.811,394.702 		"/>
		<path fill="#FFBCA1" d="M343.765,377.504c-0.571,12.105-5.356,29.959-14.96,27.103c-9.604-2.857-27.759-18.744-24.24-30.573
			s14.158-19.103,23.762-16.246C337.931,360.645,344.346,365.176,343.765,377.504z"/>
		<path fill="#264E81" d="M324.133,375.078c0,0,28.371,0.888,25.854-11.226c-2.517-12.114-20.839-20-37.027-11.245
			c0,0-29.469,9.592-8.001,41.83C304.958,394.437,321.922,394.134,324.133,375.078z"/>
		<path fill="#FFBCA1" d="M320.032,380.807c0,0-2.966-9.124-7.166-5.175c-4.2,3.948,0.362,14.638,3.874,15.237L320.032,380.807z"/>
		<path fill="#FFFFFF" d="M328.423,390.445l9.931,3.818c0,0-2.893,3.238-4.664,2.612
			C331.919,396.249,328.059,392.503,328.423,390.445z"/>
		<polygon fill="#FFFFFF" points="320.407,431.462 295.422,407.436 301.385,405.512 		"/>
		<polygon fill="#FFFFFF" points="320.407,431.462 326.619,407.179 325.93,426.13 		"/>
		<polygon fill="#FFFFFF" points="301.094,430.041 308.785,420.286 295.419,407.45 		"/>
		<path fill="#FFFFFF" d="M325.93,426.13l3.243,5.908c0,0,1.971-17.454-2.583-24.083L325.93,426.13z"/>
		<path fill="#21C7ED" d="M187.23,507.651l78.204-60.574c11.027-8.541,12.097-24.804,2.285-34.716l0,0
			c-9.575-9.672-25.374-9.082-34.2,1.278l-64.151,75.297c-4.402,5.167-4.09,12.85,0.716,17.643l0,0
			C174.717,511.198,182.059,511.657,187.23,507.651z"/>
		<path fill="#21C7ED" d="M271.814,514.339l-89.053-28.76c-6.907-2.23-14.287,1.704-16.286,8.682l0,0
			c-2.095,7.315,2.599,14.838,10.091,16.171l92.257,16.422L271.814,514.339z"/>
		<path fill="#FFBCA1" d="M339.464,379.382c0,0,7.289,5.973,6.418,14.475c0,0-6.18-0.194-6.897-2.817
			C338.267,388.418,339.464,379.382,339.464,379.382z"/>
	</g>
	<g>
		<path fill="#22273F" d="M509.623,396.378l-0.276-11.257l32.35-5.024l106.678-16.574c3.078-0.471,6.089-0.074,8.78,1.035
			c5.068,2.087,8.968,6.657,9.958,12.438c1.734,10.053-5.999,19.235-16.199,19.25l-107.98,0.101L509.623,396.378z"/>
		<path fill="#22273F" d="M667.067,382.446L667.067,382.446c2.022-8.743-3.22-17.523-11.876-19.891L520.74,324.232l-18.526,48.189
			l146.433,22.835C657.166,396.354,665.13,390.815,667.067,382.446z"/>
		<polygon fill="#F4A07F" points="500.615,392.208 484.762,390.785 507.686,379.676 509.434,384.961 		"/>
		<path fill="#2D3353" d="M584.22,400.653c0.408,1.429,0.635,2.935,0.637,4.492c0.01,10.193-9.148,17.951-19.209,16.251
			l-92.793-15.717l-46.505-7.885l1.607-11.136l45.279,0.661l95.403,1.395C576.066,388.821,582.274,393.838,584.22,400.653z"/>
		<path fill="#2D3353" d="M582.988,413.229L582.988,413.229c4.465-7.785,1.986-17.706-5.616-22.475l-58.003-54.421l-45.445-10.482
			l-1.231,2.049c-13.341,22.203-4.197,51.073,19.493,61.549l69.464,30.716C569.488,423.68,578.714,420.681,582.988,413.229z"/>
		<polygon fill="#FFB18E" points="426.352,397.8 413.602,407.327 423.246,383.75 428.076,386.515 		"/>
		<path fill="#34517D" d="M550.323,169.854c0,0-0.431,21.602,1.716,28.641c0,0-11.611-0.524-12.981-1.861
			S540.884,173.183,550.323,169.854z"/>
		<path fill="#F4A484" d="M599.226,309.067l-51.854-72.559c-7.312-10.231-4.025-24.553,7.015-30.573l0,0
			c10.772-5.874,24.264-1.273,29.204,9.958l35.907,81.636c2.464,5.602,0.205,12.156-5.187,15.05l0,0
			C609.115,315.37,602.655,313.866,599.226,309.067z"/>
		<path fill="#F25555" d="M583.591,215.894c-4.94-11.231-18.432-15.832-29.204-9.958l0,0c-11.041,6.02-14.327,20.342-7.015,30.573
			l27.75,38.83c10.085-0.829,23.445-9.354,27.286-16.664L583.591,215.894z"/>
		<path fill="#F4A484" d="M688.278,270.429l-72.992,42.315c-5.661,3.282-12.915,1.221-16.005-4.546l0,0
			c-3.241-6.048-0.538-13.571,5.81-16.174l78.168-32.053L688.278,270.429z"/>
		<path fill="#F4A484" d="M682.494,259.893c0,0,7.16-4.246,10.854-3.021s-1.787,4.985-1.787,4.985s15.146,1.867,12.903,8.308
			c-2.243,6.441-16.311,5.28-24.065-0.594L682.494,259.893z"/>
		<path fill="#FF6160" d="M486.226,284.071l-10.191-63.405c-2.259-14.053,9.513-26.383,23.655-24.778l66.569,7.558
			c9.86,1.119,16.831,10.198,15.349,20.01c-0.485,3.212-2.116,8.242-4.423,14.253c0.085,4.629,1.345,10.407,2.064,13.915
			c2.558,12.483-2.593,16.844-13.546,19.006c-1.013,0.2-2.019,0.295-3.02,0.341c-8.362,17.868-16.311,33.534-16.311,33.534
			l8.355,29.414c0,0-9.33,23.509-46.802,16.805c-16.122-2.884-41.394-12.173-41.394-12.173L486.226,284.071z"/>
		<path fill="#FFBCA1" d="M440.518,289.483l36.527-81.36c5.15-11.472,15.22-9.024,25.984-2.523l1.29-2.226
			c10.503,6.343,11.829,14.146,8.788,25.639l-52.405,72.162c-3.596,4.952-10.395,6.305-15.613,3.107l0,0
			C440.059,301.2,438.102,294.863,440.518,289.483z"/>
		<path fill="#FFBCA1" d="M535.46,306.28l-84.371,0.28c-6.544,0.021-11.804-5.381-11.606-11.922l0,0
			c0.207-6.858,6.301-12.031,13.102-11.122l83.739,11.196L535.46,306.28z"/>
		<path fill="#FFBCA1" d="M535.021,295.58c0,0,7.189-4.195,10.874-2.946s-1.821,4.973-1.821,4.973s15.133,1.972,12.845,8.397
			c-2.288,6.426-16.347,5.166-24.061-0.761L535.021,295.58z"/>
		<polygon fill="#FFB18E" points="543.427,222.7 521.902,199.013 521.919,179.862 543.462,179.88 		"/>
		<path fill="#FFBCA1" d="M551.115,161.438c2.61,10.61-0.604,28.008-5.983,27.261c-4.677-0.649-25.773-6.703-25.763-17.831
			c0.009-11.127,4.314-22.523,13.349-22.516C541.751,148.361,548.458,150.633,551.115,161.438z"/>
		<path fill="#FFFFFF" d="M541.691,178.34l6.766,0.534c0,0-1.182,2.505-2.378,2.443S541.842,179.665,541.691,178.34z"/>
		<path fill="#34517D" d="M535.315,165.206c0,0,8.761-0.046,17.342,0.812c4.06,0.406,4.567-26.489-21.718-22.55
			c0,0-42.272-0.394-9.035,53.166C521.904,196.634,538.626,187.83,535.315,165.206z"/>
		<path fill="#34517D" d="M513.966,149.958c0,0-16.317,18.547-3.529,43.513l11.467,3.163L513.966,149.958z"/>
		<path fill="#FF6160" d="M506.985,198.77L506.985,198.77c-10.765-6.5-24.791-2.12-29.941,9.353l-18.412,41.01l0,0
			c0,0,2.455,16.807,25.76,19.418l0,0l28.713-39.539C520.316,219.084,517.488,205.113,506.985,198.77z"/>
		<polygon fill="#FFBCA1" points="550.125,168 554.726,176.375 549.5,177.25 		"/>
	</g>
	<g>
		<path fill="#FF6160" d="M329.525,705.313c0,0-120.422-10.653-134.79-35.682c-9.864-17.183,9.489-57.484,22.59-81.062
			c5.929-10.669,18.532-15.695,30.157-11.977c34.366,10.994,103.282,34.5,115.78,49.922
			C380.043,647.222,345.043,706.952,329.525,705.313z"/>
		<path fill="#E55353" d="M194.735,669.632c-4.75-8.274-2.723-21.91,2.117-36.457c36.864-2.804,102.707,31.266,123.95,43.127
			c25.928,14.478,8.723,29.012,8.723,29.012S209.103,694.66,194.735,669.632z"/>
		<path fill="none" stroke="#B23B3B" stroke-miterlimit="10" d="M307.113,665.067c0,0-43.355-21.204-28.675-49.07
			c14.681-27.867,50.577-9.677,50.577-9.677"/>
		<circle fill="#FFFFFF" cx="293.545" cy="623.429" r="7.884"/>
		<path fill="none" stroke="#4C2C1C" stroke-miterlimit="10" stroke-dasharray="5" d="M367.409,636.833
			c0,0-17.551,56.234-32.321,57.955c-14.769,1.72-92.576-22.766-92.576-22.766"/>
		<path fill="#CE4949" d="M245.645,642.113c0,0,0.586,38.518-12.585,47.077c-13.172,8.56-38.37-2.9-42.628-18.702
			s6.421-37.313,6.421-37.313S213.051,625.777,245.645,642.113z"/>
		<path fill="none" stroke="#4C2C1C" stroke-miterlimit="10" stroke-dasharray="5" d="M234.993,687.627
			c0,0,4.631-16.779,5.792-30.242c0.542-6.279-3.072-12.2-8.942-14.494c-4.581-1.79-11.333-3.327-21.187-3.609"/>
		<circle fill="#FFFFFF" cx="202.338" cy="668.795" r="5.199"/>
		<path fill="#CE4949" d="M361.134,685.917c0,0-12.317,2.098-13.356,0.316l-0.973,6.722
			C346.805,692.955,356.395,696.938,361.134,685.917z"/>
		<path fill="#CE4949" d="M365.016,669.416c0,0,4.33-7.221-0.653-14.319c0,0-3.404,4.117-2.525,6.861
			C362.716,664.701,365.016,669.416,365.016,669.416z"/>
		<path fill="#E55353" d="M367.117,663.021c0,0,5.51,24.591-8.71,28.339c-9.89,2.605,3.303-10.097,3.412-17.377
			C361.926,666.701,367.117,663.021,367.117,663.021z"/>
	</g>
	<g>
		<path fill="#ED8772" d="M810.395,421.281l99.553-57.147c14.037-8.058,17.862-26.581,8.165-39.54l0,0
			c-9.462-12.644-27.717-14.486-39.514-3.987l-85.75,76.313c-5.884,5.236-6.751,14.117-1.991,20.393l0,0
			C795.445,423.361,803.811,425.06,810.395,421.281z"/>
		<path fill="#ED8772" d="M694.408,396.169l105.184,27.007c8.158,2.095,16.429-2.985,18.249-11.208l0,0
			c1.908-8.623-4.061-17.002-12.833-18.017l-108.022-12.488L694.408,396.169z"/>
		<path fill="#ED8772" d="M698.129,383.231c0,0-6.23-8.716-11.216-9.191c-4.985-0.475-0.483,6.799-0.483,6.799
			s-18.809-5.662-19.509,3.089c-0.701,8.751,16.472,14.683,28.654,11.79L698.129,383.231z"/>
		<path fill="#FFCF61" d="M893.605,311.918c0,0-10.572-2.673-54.64,43.96c0,0,3.934,34.632,28.934,44.632
			c0,0,45.772-23.667,47.886-45.667C917.899,332.844,926.312,306.992,893.605,311.918z"/>
		<path fill="#293357" d="M1008.008,610.289L1008.008,610.289c-11.455-1.484-19.693-11.749-18.663-23.254l14.018-156.56
			l66.447-0.719l-38.08,164.062C1029.229,604.589,1018.973,611.71,1008.008,610.289z"/>
		<path fill="#293357" d="M1186.681,695.494h-23.82l-162.844-80.934c-11.754-5.842-15.42-20.858-7.681-31.46l0,0
			c6.82-9.34,19.871-11.484,29.32-4.817L1186.681,695.494z"/>
		<polygon fill="#E01E1E" points="1171.001,692.378 1153.925,703.694 1186.681,702.236 1185.424,695.184 		"/>
		<path fill="#293357" d="M843.125,525.975L843.125,525.975c-5.277-10.274-1.499-22.883,8.56-28.562l136.873-77.287l38.293,54.309
			l-156.703,61.729C859.86,540.215,848.177,535.81,843.125,525.975z"/>
		<path fill="#293357" d="M833.553,699.864l-14.37-1.828l18.581-180.895c1.342-13.058,14.113-21.764,26.758-18.241l0,0
			c11.141,3.104,17.732,14.571,14.809,25.761L833.553,699.864z"/>
		<polygon fill="#E01E1E" points="819.183,698.036 802.984,710.579 835.544,706.715 833.772,699.773 		"/>
		<path fill="#FFCF61" d="M1014.622,287.495c15.23,30.911,37.919,81.688,54.94,140.252c0,0-43.869,27.151-64.842,29.28
			c-30.899,3.137-58.604-12.937-58.604-12.937c0.842-62.627-35.259-26.788-64.9-98.889c-4.865-11.837-2.538-25.246,8.73-31.313
			l77.229-41.585C984.441,263.006,1005.955,269.905,1014.622,287.495z"/>
		<path fill="#AF1E1E" d="M1027.677,410.148l-27.584,17.048c0,0,17.587,112.358,108.336,75.087L1027.677,410.148z"/>
		<path fill="#E01E1E" d="M1027.677,410.148c0,0,20.5,84.362,44.5,92.362s62.5-2,58-30c-4.5-28-46.5-83.455-46.5-83.455
			S1047.39,388.286,1027.677,410.148z"/>
		<path fill="#E01E1E" d="M910.013,303.083c0,0,41.227,82.889,115.308,122.847c6.226,3.358,7.207,11.873,1.826,16.462l-0.047,0.04
			c-3.295,2.811-8.017,3.179-11.713,0.924c-18.813-11.477-75.835-50.927-121.781-131.438
			C893.605,311.918,897.136,302.278,910.013,303.083z"/>
		<polygon fill="#FFE2AE" points="949.909,281.6 936.652,329.51 919.665,297.886 		"/>
		<path fill="#F59179" d="M908.688,401.142l48.61-103.989c6.854-14.663,24.991-20.025,38.717-11.447l0,0
			c13.393,8.37,16.757,26.406,7.282,39.042l-68.865,91.838c-4.726,6.302-13.502,7.909-20.154,3.692l0,0
			C907.866,416.212,905.473,408.018,908.688,401.142z"/>
		<path fill="#F59179" d="M819.719,447.298l94.756-53.052c7.349-4.115,16.645-1.323,20.511,6.159l0,0
			c4.054,7.846,0.431,17.476-7.79,20.703l-101.218,39.746L819.719,447.298z"/>
		<path fill="#F59179" d="M823.77,447.288c0,0-9.323-5.28-14.045-3.61c-4.721,1.67,2.428,6.37,2.428,6.37
			s-19.443,2.791-16.392,11.022c3.053,8.231,21.125,6.375,30.954-1.382L823.77,447.288z"/>
		<polygon fill="#ED8772" points="935.413,322.567 946.959,285.521 935.273,263.819 910.858,276.966 		"/>
		<path fill="#F59179" d="M890.945,260.719c3.506,13.62,13.156,32.776,23.394,27.263c10.238-5.513,27.116-27.847,20.325-40.457
			c-6.79-12.61-20.594-18.364-30.831-12.851C893.595,240.188,887.375,246.85,890.945,260.719z"/>
		<path fill="#26344F" d="M912.678,253.331c0,0-41.865,14.67-41.865-23.135c0-22.087,20.813-1.147,49.257-5.033
			c12.241-1.672,35.746,3.944,18.963,45.638C939.032,270.8,919.688,274.46,912.678,253.331z"/>
		<path fill="#F59179" d="M915.785,262.16c0,0,0.349-11.127,6.308-8.088c5.959,3.039,4.339,16.429,0.62,18.234L915.785,262.16z"/>
		<path fill="#FFFFEA" d="M909.233,270.426l-7.17,10.051c0,0,4.873,1.283,6.187-0.457
			C909.564,278.281,910.903,272.185,909.233,270.426z"/>
		<path fill="#FFD278" d="M937.923,338.6c0,0,20.81,26.459,43.81,29.935c0,0,48.043-49.686,18.488-79.581
			C960.732,249.01,937.923,338.6,937.923,338.6z"/>
		<path fill="#F59179" d="M892.482,263.819c0,0,3.75,14.191,0,15.441c0,0,6.375,2.713,8.375-3.581S892.482,263.819,892.482,263.819z
			"/>
		
			<ellipse transform="matrix(-0.9741 0.2261 -0.2261 -0.9741 2222.9717 565.5004)" fill="#FFE2AE" cx="1079.108" cy="410.027" rx="12.5" ry="6"/>
	</g>
	<path fill="#FFFFFF" d="M403.8,340.933c0,0-8.135-11.489-10.378-22.419c0,0,1.216,13.372,3.706,17.397
		c2.49,4.025-9.792-11.626-12.5-14.272c0,0,9.285,11.57,6.674,18.782c0,0-5.357-17.266-12.187-21.353c0,0,4.162,17.686,8.582,24.15
		c0,0-5.371-6.683-12.15-12.056c0,0,3.896,10.138,8.4,13.389c0,0-8.049-4.67-13.435-15.845c0,0-1.142,8.192,3.361,13.663
		c0,0-7.169-4.469-10.247-21.092c0,0-2.385,9.565,3.078,16.623c0,0-4.109-8.576-10.518-10.684l8.957,31.492l21.287-2.405
		L403.8,340.933z"/>
	<path fill="#FFFFFF" d="M236.923,399.929c0,0-8.135-11.488-10.378-22.419c0,0,1.216,13.372,3.706,17.397
		c2.49,4.025-9.792-11.626-12.5-14.272c0,0,9.285,11.57,6.674,18.782c0,0-5.357-17.266-12.187-21.353c0,0,4.162,17.686,8.582,24.15
		c0,0-5.371-6.683-12.15-12.056c0,0,3.896,10.139,8.4,13.389c0,0-8.049-4.669-13.435-15.845c0,0-1.142,8.192,3.361,13.664
		c0,0-7.169-4.469-10.247-21.093c0,0-2.384,9.565,3.077,16.624c0,0-4.108-8.576-10.518-10.684l8.957,31.492l21.287-2.405
		L236.923,399.929z"/>
	<path fill="#FFFFFF" d="M1122.924,373.328c0,0,10.977-8.812,16.135-18.707c0,0-4.841,12.524-8.341,15.711
		c-3.499,3.187,12.608-8.49,15.939-10.291c0,0-12.105,8.576-11.576,16.227c0,0,9.893-15.131,17.582-17.185
		c0,0-8.858,15.863-14.884,20.865c0,0,7-4.951,14.994-8.256c0,0-6.53,8.679-11.754,10.567c0,0,9.021-2.28,17.27-11.546
		c0,0-1.152,8.191-6.984,12.215c0,0,8.121-2.328,15.645-17.467c0,0-0.333,9.852-7.523,15.139c0,0,6.306-7.118,13.047-7.385
		l-17.26,27.821l-19.808-8.159L1122.924,373.328z"/>
</g>
</svg>
