<?xml version="1.0" encoding="utf-8"?>
<svg id="master-artboard" viewBox="0 0 1400 980" version="1.1" xmlns="http://www.w3.org/2000/svg" x="0px" y="0px" width="1400px" height="980px" enable-background="new 0 0 1400 980">
<path fill="#7E4249" d="M1254.4,170.8c-71.1-86.8-173.7-93.6-278.6-85.3C858.1,95,763,135.7,658,183.1&#10;&#9;&#9;&#9;c-56.3,25.5-107.6,26.2-165.4,3.7c-38.4-14.9-69.4-29.4-112-27.7C174.2,166.9,111,449.6,159.8,610&#10;&#9;&#9;&#9;c30.8,101.3,101.1,161.9,207.9,176.5c71.5,9.8,115.5-11.6,174-42.2c34-17.8,84.5-19.3,118.5,1.4c33.3,20.3,39.1,53.5,61.3,83.8&#10;&#9;&#9;&#9;c26.5,36.3,73.5,71.3,121.3,67.2c2.4-25.7,17.9-47.2,33.5-68.6c11.9-19,8-40.8,11.3-63.1c10.1-66.7,74-120.7,137.5-140.7&#10;&#9;&#9;&#9;c55.1-17.3,129.1-4.3,152-71.6c6.6-19.4,2.2-38.7,11.9-57.7c10.8-21.1,35.5-32.4,53.3-48.1&#10;&#9;&#9;&#9;C1320.8,377.6,1320.7,251.7,1254.4,170.8z M500.9,296.4c-7,9.3-18.4,14.2-29.5,16.7c-27,6.1-58.2,1.6-82.9-10.7&#10;&#9;&#9;&#9;c-10.3-5.1-20.8-12.5-26.2-22.9c-5.6-10.6-4.1-22.6,2-32.7c10.8-17.9,31.9-24,51.6-25.4c11.3-0.8,22.7-0.2,34,1.1&#10;&#9;&#9;&#9;c9.4,1.1,19.2,2.1,28.1,5.2c0.1,0,0.1,0.2,0,0.2c-9.3-0.2-18.5-2.1-27.8-3c1.3,0.2,2.7,0.4,4,0.6c11.5,1.9,23.3,4,33.2,10.6&#10;&#9;&#9;&#9;c10,6.6,14.5,16.1,17.8,27.2C508.4,274.4,508.1,286.8,500.9,296.4z" transform="matrix(0.9999999999999999, 0, 0, 0.9999999999999999, -2.842170943040401e-14, 0)"/><path fill="#4E2730" d="M1107.6,627L841,893.6V603.1c0-3.6,0.3-2,1.4-5.4c0.5-1.7,0.1-2.6-1.3-2.7c-21.6,25.6-63.1,47-97,40.6&#10;&#9;&#9;&#9;&#9;c-46.3-8.7-61.6-42.4-67.6-84.9c-6.5-46.4-7.9-87.1,3.8-133.3c3.5-14,9.6-68.6,29.3-58.6c15.6,8,24.2,40.1,31.7,54.1&#10;&#9;&#9;&#9;&#9;c3.4,6.3,9.7,20.5,14.9,24.9c16.4,14.1,51.3-15.1,66.2-22.9c20.9-11,62-28.1,72.6-51c41.7,0.2,84.9,8.3,117.9,35.8&#10;&#9;&#9;&#9;&#9;c48.6,40.6,72.8,109,89.8,168.2C1108,586.2,1112.2,608.4,1107.6,627z" transform="matrix(0.9999999999999999, 0, 0, 0.9999999999999999, -2.842170943040401e-14, 0)"/><path fill="#370211" d="M1102.8,568c-17-59.2-41.2-127.6-89.8-168.2c-33-27.5-76.2-35.6-117.9-35.8c-7.6,16.4-30.8,29.8-51,40.1&#10;&#9;&#9;&#9;&#9;&#9;c-2,11.9-6,24-5.1,36.9c19,1,26.1-3.7,30.4,15.1c4.2,18.3-11,60.1,22.5,50.1c25-7.5,43.8-41.3,67.3-54.1&#10;&#9;&#9;&#9;&#9;&#9;c25.5-13.8,19.3,5.7,20.3,26.7c23.7,0.5,8.8,43.9,6.9,57.6c-10.3,76.8-13.9,155.7-21.5,233.2L1107.6,627&#10;&#9;&#9;&#9;&#9;&#9;C1112.2,608.4,1108,586.2,1102.8,568z" transform="matrix(0.9999999999999999, 0, 0, 0.9999999999999999, -2.842170943040401e-14, 0)"/><path fill="#370211" d="M808,424c-16.8,10.8-39.5,24.5-51.7,14c-5.2-4.5-11.5-18.6-14.9-24.9c-7-13.1-15-41.9-28.7-52.2&#10;&#9;&#9;&#9;&#9;&#9;c2.3,10.4,6.5,21.2,9.2,28.2c12,30.5,25.6,60.8,36.7,91.9c10.3,28.8,18.8,55.8,18.8,86.5c0,17.4-7.9,61.1,17.7,32.5&#10;&#9;&#9;&#9;&#9;&#9;c15.7-17.6,19-46,16.6-68.6c-1.6-15.2-11.7-29.9-10.6-44.8c6.2-0.6,15.8,3.2,19.6-0.3c9.9-9.3-6.3-42.9-9.3-52.4&#10;&#9;&#9;&#9;&#9;&#9;C810.6,431.2,809.4,427.9,808,424z" transform="matrix(0.9999999999999999, 0, 0, 0.9999999999999999, -2.842170943040401e-14, 0)"/><path fill="#370211" d="M995.3,662.9c-5.7-25.1-7.5-56.3-37.7-45c-22.5,8.4-43.5,26.5-64.9,37.7c-7.9,4.1-35.2,11.4-51.7,21.5&#10;&#9;&#9;&#9;&#9;v44.8c13.6,20.1,67.3,87.1,79.9,100.3l88.1-91.9C1006,706.5,999.8,682.4,995.3,662.9z" transform="matrix(0.9999999999999999, 0, 0, 0.9999999999999999, -2.842170943040401e-14, 0)"/><path fill="#BAA68D" d="M887,407.2c1.5,11,4.6,22.2,6.4,33.5c1.8,11.4,0.6,31.4,6.8,41.2c6.7,10.6,8.6,2.9,15.1-6.1&#10;&#9;&#9;&#9;&#9;c8.3-11.5,15.1-23.3,21.3-36.2c9-18.7,26.3-42.9-3.6-45.9C915.8,391.9,896.9,397.5,887,407.2z" transform="matrix(0.9999999999999999, 0, 0, 0.9999999999999999, -2.842170943040401e-14, 0)"/><path fill="#D8CCD7" d="M958.1,342.4c-8.9-3-52.8-10-50.8,6.8c-10,10-15,28.6-21.6,41.2c-5.4,10.3-19.3,25.8-20.1,36.9&#10;&#9;&#9;&#9;&#9;c14.4,1.7,24.6-4.4,37-9.8c21.4-9.3,27.4,13.7,43.9,26.2c9.3,7.1,8.5,8.7,14.5-3.7c6.2-12.7,7.7-28.7,11.1-42.3&#10;&#9;&#9;&#9;&#9;C978.1,374.1,987,352.1,958.1,342.4z" transform="matrix(0.9999999999999999, 0, 0, 0.9999999999999999, -2.842170943040401e-14, 0)"/><path fill="#BAA68D" d="M958.1,342.4c-8.9-3-52.8-10-50.8,6.8c-5.7,5.7-9.8,14.2-13.4,22.7c0.5,1.2,1.2,2.3,2.3,3.1&#10;&#9;&#9;&#9;&#9;&#9;c4.3,2.8,9.8-1,14-4.6c2,4.3,5.5,7.9,7.3,5.5c-0.4-0.1-0.7-0.2-1.1-0.3c-0.5-1-0.5-5.8-0.9-10c11.3-9.5,23.8-10.3,26.9,7.8&#10;&#9;&#9;&#9;&#9;&#9;c2.9,17.1-14.7,33.8,1,46.4c7.6,6.1,8.6,8.2,11,17.8c0.8,3.3,1.6,6.7,2.9,9.7c1-1.5,2.1-3.8,3.8-7.3&#10;&#9;&#9;&#9;&#9;&#9;c6.2-12.7,7.7-28.7,11.1-42.3C978.1,374.1,987,352.1,958.1,342.4z" transform="matrix(0.9999999999999999, 0, 0, 0.9999999999999999, -2.842170943040401e-14, 0)"/><path fill="#BAA68D" d="M911.1,399.4c12.4-1.2,19-19.6,6.3-23.5c-3.1,5.3-7.3,10.4-10.3,16C904,397.5,904.2,400,911.1,399.4z" transform="matrix(0.9999999999999999, 0, 0, 0.9999999999999999, -2.842170943040401e-14, 0)"/><path fill="#BAA68D" d="M917.5,375.6c-0.1,0.1-0.1,0.1-0.2,0.2c0,0,0,0,0,0C917.4,375.8,917.5,375.7,917.5,375.6z" transform="matrix(0.9999999999999999, 0, 0, 0.9999999999999999, -2.842170943040401e-14, 0)"/><path fill="#CD7F62" d="M871.3,194.2c-1,7.2-7.9,13.9-12.3,19.5c-5.1,6.5-4.5,9.4-4.2,17.1c0.3,8.9-3.9,17.2-9.8,23.8&#10;&#9;&#9;&#9;&#9;&#9;c-2.5,2.9-5.5,5.4-8.8,7.1c-2.9,1.5-8,1-10.5,2.6c-7.1,4.5,1.3,13.3,7.1,14.5c0.9,1.1-0.1,0.8-0.5,1.6&#10;&#9;&#9;&#9;&#9;&#9;c-2.6,6.4-9.4,12.1,0.4,14.7c-1.1,1.8-2.4,4-2.6,6.4c12.2,7.3-4.8,23.7,15.5,27c11.7,1.9,23.9-2.4,35.8,1.8&#10;&#9;&#9;&#9;&#9;&#9;c15.3,5.4,23.9,24.9,27.7,39.2c1.7,6.5,2.7,13.1,4.9,19.4c1,3,3.5,7.5,1.9,9.5c13.1-3.5,25.6-14.8,36.5-22.2&#10;&#9;&#9;&#9;&#9;&#9;c3.4-2.3,7.4-6.5,9.9-10.2c-9.9-5.6-18.2-22.6-24.2-33.4c-7.4-13.5-13.4-23.9-2-37.3c13.9-16.3,30.3-36.6,26.6-59.8&#10;&#9;&#9;&#9;&#9;&#9;c-4.1-25.4-26.1-36.4-48.4-43C909,191,872.8,183.1,871.3,194.2z" transform="matrix(0.9999999999999999, 0, 0, 0.9999999999999999, -2.842170943040401e-14, 0)"/><path fill="#AF5031" d="M962.8,235.6c-4.1-25.4-26.1-36.4-48.4-43c-5.4-1.6-41.6-9.6-43.2,1.6c-0.5,3.5-2.4,6.9-4.7,10.1&#10;&#9;&#9;&#9;&#9;&#9;c6,2.8,12.4,5.3,18.3,8.2c-1.1-2.4-2.2-5.2-2.9-7.6c4.8,0.5,8,4.3,10.4,8.3c3,4.9,1.6,13,4.5,16.6c-4.5,2.8-12.4,12.8-14.4,17.6&#10;&#9;&#9;&#9;&#9;&#9;c-1.4,3.5-1.1,3.8,0.6,6.9c2.7,4.9,5.3,5.8,4.9,12.2c3.6-0.3,5-3.9,8.3-5.3c1.5-0.6,2.1-1.4,3.6-1.8c1.6-0.4,1.4,2.2,2.4,2&#10;&#9;&#9;&#9;&#9;&#9;c3.4-0.7,9.5-11.1,13.2-9.8c5.4,1.9-4.9,9.6-5.4,11.4c-0.8,3.4,2.5,4.2,0.2,8c-1.3,2.2-3.4,1.1-5.1,2.3c-5.3,3.9-4.3,8-6.5,13.8&#10;&#9;&#9;&#9;&#9;&#9;c-3.8,10.2-10.7,18.2-16.8,26.8c-10.9,15.2,16.2,3.2,23.5,4.3c8,1.2,7.7,9.7,10.7,16.4c2.6,5.7,6.5,10.7,9.7,16.2&#10;&#9;&#9;&#9;&#9;&#9;c6,9.9,12.3,21.1,19.6,30.6c2.4-1.8,4.8-3.5,7-5c3.4-2.3,7.4-6.5,9.9-10.2c-9.9-5.6-18.2-22.6-24.2-33.4&#10;&#9;&#9;&#9;&#9;&#9;c-7.4-13.5-13.4-23.9-2-37.3C950.1,279.1,966.5,258.8,962.8,235.6z" transform="matrix(0.9999999999999999, 0, 0, 0.9999999999999999, -2.842170943040401e-14, 0)"/><path fill="#D6B982" d="M962.6,208c-4.5-17.2-24.1-20.6-38.3-25.5c-9.9-3.4-20.7-7.2-29.3-13.1c-7.1-4.9-9.5-9.9-14.7-15.8&#10;&#9;&#9;&#9;&#9;&#9;c-15,3.4-29.6,15.6-24.8,32.3c3.9,13.6,13.4,17,25.8,21.9c-2.3-2.5-4.6-5.4-6.1-8.6c7.3,3.9,20.9,5.4,26.6,11.3&#10;&#9;&#9;&#9;&#9;&#9;c6.6,6.9,0,13.5-4,19.4c12.8,5.9-1.6,26.6-4.9,34c2.9,1.1,6.4-0.7,9.7-0.7c0.6-9,19.6-25.2,23.3-11.7&#10;&#9;&#9;&#9;&#9;&#9;c4.2,15.3-11.4,29.6-25.4,29c1.4,9.5,1.2,13.1,9.7,18.6c6.2,4,13.3,8.7,19.9,10.9c3.8-10.7,13.9-15.5,22.2-22.7&#10;&#9;&#9;&#9;&#9;&#9;c11.6-10.1,22.6-23.6,24.7-39.3c2-15.1-1-32-14.4-41.1C962.6,207.4,962.6,207.3,962.6,208z" transform="matrix(0.9999999999999999, 0, 0, 0.9999999999999999, -2.842170943040401e-14, 0)"/><path fill="#D6B982" d="M865.9,211.4c-3.5-1.9-7.9-3.4-11.9-2.5c-1,0.2-1,1.8,0,2.1c3.6,0.8,7.1,1.1,10.4,3&#10;&#9;&#9;&#9;&#9;&#9;c1.6,0.8,3,1.9,4.3,3.1c1.3,1.2,2.3,2.6,3.9,3.3c0.5,0.2,1.2,0,1.1-0.6C873.5,215.9,868.9,213,865.9,211.4z" transform="matrix(0.9999999999999999, 0, 0, 0.9999999999999999, -2.842170943040401e-14, 0)"/><path fill="#4E2730" d="M855.4,249.5c-0.2,1.1-0.3,1.5,0,2.5c3.2,0.7,3,2.1,3.1,5.2l12.9-3.1C866,253,860.6,251.6,855.4,249.5z" transform="matrix(0.9999999999999999, 0, 0, 0.9999999999999999, -2.842170943040401e-14, 0)"/><path fill="#AF5031" d="M859.7,237.8c1.8-2.1,4.2-3.1,6.9-3c0.2-2.9-1.4-8.2-5.2-5.8c-2.2,1.4-3.7,7.4-1.1,8.9&#10;&#9;&#9;&#9;&#9;&#9;c0.6-0.1,0-0.3,0.3-0.6" transform="matrix(0.9999999999999999, 0, 0, 0.9999999999999999, -2.842170943040401e-14, 0)"/><path fill="#AF5031" d="M836.2,261.8c-2.9,1.5-8,1-10.5,2.6c-1,0.6-1.6,1.3-2.1,2c0.3-0.1,0.6-0.1,0.9-0.1&#10;&#9;&#9;&#9;&#9;&#9;&#9;c5-0.4,9.2,2.2,13.9-0.5c3.5-2,7.8-5.8,9.5-9.4c0.8-1.7,0.9-3.9,0.1-5.6c-1,1.3-2,2.6-3.1,3.9&#10;&#9;&#9;&#9;&#9;&#9;&#9;C842.5,257.5,839.5,260.1,836.2,261.8z" transform="matrix(0.9999999999999999, 0, 0, 0.9999999999999999, -2.842170943040401e-14, 0)"/><path fill="#AF5031" d="M834.4,279.9c-0.4-0.2-0.9-0.4-1.3-0.5c0.2,0.5-0.5,0.4-0.8,1.1c-1.3,3.2-3.7,6.2-4.5,8.8&#10;&#9;&#9;&#9;&#9;&#9;&#9;c3-1.1,6.5-1.4,8.3-4.1C837.8,282.9,836.7,281,834.4,279.9z" transform="matrix(0.9999999999999999, 0, 0, 0.9999999999999999, -2.842170943040401e-14, 0)"/><path fill="#4E2730" d="M1073.8,276.4c3.9-20.8,8.9-50.9,1.7-71.6c-7.1-20.5-33.3-19.7-50.8-24.2c-11.9-3.1-20.4-11.3-32-14.9&#10;&#9;&#9;&#9;&#9;c-12.8-4-24.6,0.1-37.2,2.8c-10.8,2.4-25.1-3.1-35.4-0.7c-2.2-7.8-4.3-15.7-6.5-23.7c-2.6-9.3-8.8-30.1-17.6-16.4&#10;&#9;&#9;&#9;&#9;c-5.4,8.4-9.6,31.3-4.1,39.4c1.6,1.9,10.9,7.1,13.6,8.2c7.6,7.6,3.9,9.1,8.3,15.7c1.7,2.5,3.1,4.9,4.4,7.4&#10;&#9;&#9;&#9;&#9;c1.6,7.4,2.5,15.3,4.3,21.3c4.2,13.7,5.4,28,8.7,41.9c2.4,10,2.5,20,7.4,28.9c0.5,1,1.1,1.8,1.6,2.6c-1.1,2.3-2.6,4.9-4.3,8.6&#10;&#9;&#9;&#9;&#9;c6.6,13,26,32.9,42.2,26.9c-0.7-9.4-9.7-14.8-15.6-21c-3.6-3.9-5.7-7.6-7-11.6c3.4-1.8,7.2-4.4,11.2-6.9c11-6.6,23.9-7.1,34-15.1&#10;&#9;&#9;&#9;&#9;c7.7-6.1,11.2-13.9,15.1-21.8c13.7,27.1,8.8,64.2,14.7,93.6c1.5,7.5,6.9,41.7,19.8,40.6c5.3-0.4,3.5-2.4,4.4-6.3&#10;&#9;&#9;&#9;&#9;c0.4-1.9-1.4-5.4-1.6-7.4c-0.7-7.6,0.5-15.3,1.6-22.8C1058.9,324.7,1069.1,301.4,1073.8,276.4z" transform="matrix(0.9999999999999999, 0, 0, 0.9999999999999999, -2.842170943040401e-14, 0)"/><path fill="#370211" d="M1073.8,276.4c3.9-20.8,8.9-50.9,1.7-71.6c-7.1-20.5-33.3-19.7-50.8-24.2c-11.9-3.1-20.4-11.3-32-14.9&#10;&#9;&#9;&#9;&#9;c-12.8-4-24.6,0.1-37.2,2.8c-5.9,1.3-12.9,0.3-19.7-0.6c0,0.4,0.1,0.8,0.1,1.2c2.8,25.8-0.1,48.2-1.3,73.3c-0.6,12.3,0,24.7,0,37&#10;&#9;&#9;&#9;&#9;c0.9,3.8,2.1,7.5,4,11.1c0.5,1,1.1,1.8,1.6,2.6c-1.1,2.3-2.6,4.9-4.3,8.6c6.6,13,26,32.9,42.2,26.9c-0.7-9.4-9.7-14.8-15.6-21&#10;&#9;&#9;&#9;&#9;c-3.6-3.9-5.7-7.6-7-11.6c3.4-1.8,7.2-4.4,11.2-6.9c11-6.6,23.9-7.1,34-15.1c7.7-6.1,11.2-13.9,15.1-21.8&#10;&#9;&#9;&#9;&#9;c13.7,27.1,8.8,64.2,14.7,93.6c1.5,7.5,6.9,41.7,19.8,40.6c5.3-0.4,3.5-2.4,4.4-6.3c0.4-1.9-1.4-5.4-1.6-7.4&#10;&#9;&#9;&#9;&#9;c-0.7-7.6,0.5-15.3,1.6-22.8C1058.9,324.7,1069.1,301.4,1073.8,276.4z" transform="matrix(0.9999999999999999, 0, 0, 0.9999999999999999, -2.842170943040401e-14, 0)"/><path fill="#C1A574" d="M859.2,685.8c-0.9-8.5-1.7-16.9-1.8-25.4l136.4-137.6c1.3-1.3,3.3-1.4,4.5-0.2l96.8,96&#10;&#9;&#9;&#9;&#9;&#9;c1.2,1.2,1.1,3.2-0.2,4.6l-0.1,0.1c-0.7,0.8-4.1,4.9-2.2,13.3c1,4.6-5.7,3.8-12.8,1.8L946.1,773.5c-1.3,1.3-3.3,1.4-4.5,0.2&#10;&#9;&#9;&#9;&#9;&#9;l-81.8-81C859.7,690.4,859.5,688.1,859.2,685.8z" transform="matrix(0.9999999999999999, 0, 0, 0.9999999999999999, -2.842170943040401e-14, 0)"/><path fill="#6A211D" d="M998,522.2l1.4,1.4c0,0-6.8-1.4-4.2,12.8l99.2,98.3c1.3,1.3,1.3,3.4,0,4.7L947.7,787.5&#10;&#9;&#9;&#9;&#9;&#9;c-1.3,1.3-3.4,1.3-4.7,0l-99.7-98.8c-1.3-1.3,3.2-17.2,4.5-18.5l122.5-123.6l15.1-15.2l9-9.1C995.4,521.2,997,521.2,998,522.2z" transform="matrix(0.9999999999999999, 0, 0, 0.9999999999999999, -2.842170943040401e-14, 0)"/><path d="M 927.200012 525.5 H 952.800013 V 740.600006 H 927.200012 V 525.5 Z" transform="matrix(-0.7102999687194824, -0.7038999795913696, 0.7038999795913696, -0.7102999687194824, 1162.0863037109373, 1744.4099121093748)" fill="#952E1F"/><path fill="#4F1012" d="M998,522.2l1.4,1.4c0,0-6.7-1.4-4.2,12.6L843.7,689.1l-0.4-0.4c-1.3-1.3,3.2-17.2,4.5-18.5l122.5-123.6&#10;&#9;&#9;&#9;&#9;&#9;l15.1-15.2l9-9.1C995.4,521.2,997,521.2,998,522.2z" transform="matrix(0.9999999999999999, 0, 0, 0.9999999999999999, -2.842170943040401e-14, 0)"/><path fill="#AF5031" d="M973.7,244.1c-1.7-18.4-8.3-34-12.2-51.6c-2.8-12.7,1.5-22.7-9.6-28.6c-7.1-3.8-23.6-3.5-29.9,2.9&#10;&#9;&#9;&#9;&#9;c5.4,23.2,19.5,42.3,22.7,66.3c2.8,21.1,4,43.2,12.7,61.9c7.7-1.7,14.8-3.7,22.6-6.8C975.5,274.3,975.1,259,973.7,244.1z" transform="matrix(0.9999999999999999, 0, 0, 0.9999999999999999, -2.842170943040401e-14, 0)"/><path fill="#CD7F62" d="M974.1,613.7c-2.5-7.5-5.1-14.8-10.1-21.3c-3.9-5.1-8.3-13-12.6-17.3c-12.9-12.9-18.6,10.6-6.6,19.3&#10;&#9;&#9;&#9;&#9;&#9;c-7.4-3.8-10.8-14.2-17.9-18.9c-6.7-4.4-20.8,0.4-12.9,8.1c-11.5-4.8-7.2,12.9-2.4,15.9c-6.7-3.4-11.1,1.4-8.9,8.3&#10;&#9;&#9;&#9;&#9;&#9;c1.3,4.1,6.9,8.1,10,10.9c-8.2-1.5-10.4-10.3-18.1-10.5c-4.1,10.7,23.9,27.2,30.8,31.8c9.4,6.2,19.7,12.2,28.7,18&#10;&#9;&#9;&#9;&#9;&#9;c9.3-9,19.2-20.2,26.1-31C975.2,621.1,976.4,620.7,974.1,613.7z" transform="matrix(0.9999999999999999, 0, 0, 0.9999999999999999, -2.842170943040401e-14, 0)"/><path fill="#AF5031" d="M974.1,613.7c-2.5-7.5-5.1-14.8-10.1-21.3c-3.9-5.1-8.3-13-12.6-17.3c-3.6-3.6-6.7-4.4-9-3.4&#10;&#9;&#9;&#9;&#9;&#9;&#9;c-0.2,7.6,7,14.8,4.2,22c-3.1,0.4-6.1-5.6-7.9-8.4c0.9,3.4,2.8,6.8,6,9.1c-7.4-3.8-10.8-14.2-17.9-18.9&#10;&#9;&#9;&#9;&#9;&#9;&#9;c-0.3-0.2-0.7-0.4-1.1-0.6c2.4,3.3,4.4,6.9,4.7,11.7c0.3,5,0.1,7.7,2,11.9c1.9,4.3,3.5,5.7,2.1,11c-1.5,5.5-1,6.6-0.4,12&#10;&#9;&#9;&#9;&#9;&#9;&#9;c0.6,6.2-3.1,9.3-5.6,15c-0.7,1.6-1.1,3.2-1.4,4.7c8.9,5.8,18.4,11.4,26.9,16.8c9.3-9,19.2-20.2,26.1-31&#10;&#9;&#9;&#9;&#9;&#9;&#9;C975.2,621.1,976.4,620.7,974.1,613.7z" transform="matrix(0.9999999999999999, 0, 0, 0.9999999999999999, -2.842170943040401e-14, 0)"/><path fill="#AF5031" d="M920.8,594.8c1.7,5.1,4.1,10.4,10.7,8.6c-0.3-2-2.8-2-4.2-3.2c-1.7-1.5-2.2-3.3-2.8-5.3&#10;&#9;&#9;&#9;&#9;&#9;&#9;c-1.4-4.3-4.2-8.1-8.3-10.4c-0.9-1.5,0.1,2.4,0.7,3.4C918.2,590.4,919.9,592.1,920.8,594.8z" transform="matrix(0.9999999999999999, 0, 0, 0.9999999999999999, -2.842170943040401e-14, 0)"/><path fill="#AF5031" d="M921.3,610.4c-2-3-4.4-7.6-7.9-9c-3.5-0.6,2.9,7.4,3.6,8.7c2.3,4.1,4.7,10.4,10.8,6.8&#10;&#9;&#9;&#9;&#9;&#9;&#9;C924.7,615,923.5,613.8,921.3,610.4z" transform="matrix(0.9999999999999999, 0, 0, 0.9999999999999999, -2.842170943040401e-14, 0)"/><path fill="#BAA68D" d="M1027.3,658.8c-11-12.6-21.5-30.8-40.1-30.7c-0.7-3.3-6.3-8.8-8.5-5.9c-7.5,9.8-14.8,19.7-22.1,29.6&#10;&#9;&#9;&#9;&#9;c0.1-0.2,0.1-0.4,0.1-0.7c-2.6,2.7-6.6,5.3-5.6,9.6c0.6,2.5,3.7,3.7,5.1,5.7c2.5,3.4,1.7,3.5,2.7,7.5c4.6,19.2,13.1,36,26.1,50.7&#10;&#9;&#9;&#9;&#9;c4,4.6,8.7,8.3,12.9,12.3l47.4-48C1039.7,679.3,1035,667.6,1027.3,658.8z" transform="matrix(0.9999999999999999, 0, 0, 0.9999999999999999, -2.842170943040401e-14, 0)"/><path fill="#370211" d="M914.1,182.4c-3.4-9-4.6-19.1-8.8-27.8c-4.9-10.3-10.7-2.4-12.2,5.2c-0.4,2-0.7,4.8-0.7,7.7&#10;&#9;&#9;&#9;&#9;c2.5,2.2,10.6,6.7,13,7.7c7.6,7.6,3.9,9.1,8.3,15.7c1.7,2.5,3.1,4.9,4.4,7.4c1.4,6.3,2.2,13.1,3.6,18.7c0.2-6.8-1-15-1.6-17.8&#10;&#9;&#9;&#9;&#9;C919.2,193.1,916.3,188.3,914.1,182.4z" transform="matrix(0.9999999999999999, 0, 0, 0.9999999999999999, -2.842170943040401e-14, 0)"/><path fill="#D6B982" d="M1167.5,525.2c-2.3-9.8-11.1-15.5-19.8-19c-13.1-5.2-27.1-8.3-40.7-11.9c-11.4-3-22.7-5.9-34.1-8.9&#10;&#9;&#9;&#9;&#9;c0.5,0.8,1.1,1.7,1.3,2.5c10,2.7,20,5.5,30,8.2c13.5,3.7,27.6,6.4,40.8,11.1c12.5,4.5,23.7,14.8,18.4,29.2&#10;&#9;&#9;&#9;&#9;c-5.1,13.8-20.1,18.7-33,22.4c-56,16.2-114.8,20.4-172.9,19.8c-59.6-0.7-119.1-5.8-178.6-8.2c-61.4-2.4-122.9-3.3-184.3-3.6&#10;&#9;&#9;&#9;&#9;c-123-0.5-246.1,2.2-369.1-0.8c-22.9-0.6-46.2-2.1-68.3-8.6c-10.1-3-19.9-7.1-28.8-12.9c-4.6-3-9-6.5-12.9-10.4&#10;&#9;&#9;&#9;&#9;c-3.6-3.6-10.8-9.8-10.4-15.3c0.4-5.6,9.7-8.9,13.8-10.9c6.4-3.1,13-5.9,19.6-8.4c12.8-4.9,25.9-8.8,39.1-11.9&#10;&#9;&#9;&#9;&#9;c27.1-6.5,54.9-9.9,82.7-12.4c59.4-5.2,119.1-8.6,178.6-12.2c61.7-3.7,123.2-6.7,185-7.1c15.2-0.1,30.3-0.3,45.5-0.4&#10;&#9;&#9;&#9;&#9;c0.9,0,0.9-1.3,0-1.4c-64.8-1.7-129.7,0.8-194.5,2.9c-64,2.1-128,5.8-192,9.8c-56.5,3.5-114.3,9.3-166.3,33.5&#10;&#9;&#9;&#9;&#9;c-8.9,4.2-22.4,10.4-18.8,22.7c3,10,13.8,18.9,21.8,24.9c18.5,13.8,41.7,20,64.2,23.1c26.5,3.7,53.4,3.5,80.1,3.9&#10;&#9;&#9;&#9;&#9;c32.5,0.5,65,0.7,97.5,0.8c65,0.1,130-0.3,195-0.2c65,0.1,130,0.6,194.9,2.7c62.7,2,125.3,6.6,188,7.3&#10;&#9;&#9;&#9;&#9;c60.7,0.7,122.3-2.4,181.3-17.7c12.2-3.2,25.5-6.2,35.3-14.6C1164,546.4,1170.1,536,1167.5,525.2z" transform="matrix(0.9999999999999999, 0, 0, 0.9999999999999999, -2.842170943040401e-14, 0)"/><path d="M 586 488.100006 A 161.399994 161.399994 0 0 1 424.600006 649.5 A 161.399994 161.399994 0 0 1 263.200012 488.100006 A 161.399994 161.399994 0 0 1 424.600006 326.700012 A 161.399994 161.399994 0 0 1 586 488.100006 Z" opacity="0.65" fill="#CD7F62" transform="matrix(0.9999999999999999, 0, 0, 0.9999999999999999, -2.842170943040401e-14, 0)"/><path d="M 531.300003 488.100006 A 101.300003 101.300003 0 0 1 430 589.400009 A 101.300003 101.300003 0 0 1 328.699997 488.100006 A 101.300003 101.300003 0 0 1 430 386.800003 A 101.300003 101.300003 0 0 1 531.300003 488.100006 Z" opacity="0.65" fill="#FBC0A2" transform="matrix(0.9999999999999999, 0, 0, 0.9999999999999999, -2.842170943040401e-14, 0)"/><path fill="#AF5031" d="M585.6,290.6c-1.2,3,3.4,9.9,4.4,13.2c1,3.5,1.6,8.3,3.3,11.5c2.1,3.9,12.7,5.8,17.1,5.3&#10;&#9;&#9;&#9;&#9;&#9;&#9;c2.8-0.3,5-3.6,1.4-5.1c6.8,0.1,11-1.3,13.4-8.4c4.1-12.3-8.3-23.1-19.3-25.1C598.1,280.6,589.6,283.9,585.6,290.6z" transform="matrix(0.9999999999999999, 0, 0, 0.9999999999999999, -2.842170943040401e-14, 0)"/><path fill="#370211" d="M587.9,302.5c-6.4,4.4-11.2,11.3-16.2,17.1c-5.5,6.3-10.9,12.6-16.3,18.9&#10;&#9;&#9;&#9;&#9;&#9;&#9;c-10.7,12.4-21.3,24.8-31.9,37.3c-21.6,25.3-43.1,50.8-64.5,76.3c-11.7,14-24,27.9-34.1,43c-0.9,1.4,1.1,2.8,2.2,1.7&#10;&#9;&#9;&#9;&#9;&#9;&#9;c11.7-11.3,22-24.2,32.5-36.6c10.8-12.7,21.5-25.5,32.2-38.2c21.1-25,42.3-49.9,63.6-74.7c6-7,12-14,18-21&#10;&#9;&#9;&#9;&#9;&#9;&#9;c5.7-6.6,13.2-13.4,17.1-21.3C591.2,303.5,589.6,301.4,587.9,302.5z" transform="matrix(0.9999999999999999, 0, 0, 0.9999999999999999, -2.842170943040401e-14, 0)"/><path fill="#952E1F" d="M531.2,366.9c-2.5,3-5.1,5.9-7.6,8.9c-21.6,25.3-43.1,50.8-64.5,76.3c-11.7,14-24,27.9-34.1,43&#10;&#9;&#9;&#9;&#9;&#9;&#9;c-0.9,1.4,1.1,2.8,2.2,1.7c11.7-11.3,22-24.2,32.5-36.6c10.8-12.7,21.5-25.5,32.2-38.2c14.5-17.1,29-34.2,43.6-51.3&#10;&#9;&#9;&#9;&#9;&#9;&#9;C534,369.5,532.6,368.2,531.2,366.9z" transform="matrix(0.9999999999999999, 0, 0, 0.9999999999999999, -2.842170943040401e-14, 0)"/><path fill="#CD7F62" d="M698.1,337.9c-9.6-10.8-15.4-22-21.3-35.3c-5-11.3-11.9-21.5-23.8-26.2c-10.7-4.2-23-7.9-34.3-10.2&#10;&#9;&#9;&#9;&#9;&#9;&#9;c-7.5-1.5-16.6-1.6-23,2.6c-6.8,4.4-13.5,11.7-19.5,17.3c-5.3,5-2,9.4,1.2,15.3c1,1.8,2.7,4,3,6.1c0.4,2.8-2.1,4.9,1.4,5.8&#10;&#9;&#9;&#9;&#9;&#9;&#9;c0.3,0.1,0.6,0.1,0.9,0.1c-0.8,3.5-0.3,7.6,3,9.1c4.2,1.8,6-2.6,8.9-4.7c5.4-3.8,13.1-5.3,19.5-5.9c12.2-1.2,20.8-1.6,30.2-9.2&#10;&#9;&#9;&#9;&#9;&#9;&#9;c7.9,5.7,10.7,18.1,14.3,26.6c1.7,3.9,3.7,7.7,5.8,11.4c1.7,3,3.3,8.7,5.7,11.1c5.5,5.6,17.8,1.7,23.2-2.2&#10;&#9;&#9;&#9;&#9;&#9;&#9;C696.6,347.2,701.3,341.4,698.1,337.9z M593.6,301.8c-1.5,1.4-3.3,2.4-5,3.6c0-3.4-2.3-6.8-3.6-9.9c4.2-3.3,8.7-6.8,14.1-7.6&#10;&#9;&#9;&#9;&#9;&#9;&#9;C598.8,293.5,598,297.8,593.6,301.8z" transform="matrix(0.9999999999999999, 0, 0, 0.9999999999999999, -2.842170943040401e-14, 0)"/><path fill="#AF5031" d="M590.6,311.8c0.9,1.1,1.8,2.2,2.7,3.4c0.8,1.1,2.2,1.9,2.2-0.2c0-1.4-1.3-3.6-2.6-4.2&#10;&#9;&#9;&#9;&#9;&#9;&#9;C592,310.4,590.2,310.2,590.6,311.8z" transform="matrix(0.9999999999999999, 0, 0, 0.9999999999999999, -2.842170943040401e-14, 0)"/><path fill="#AF5031" d="M583.6,311.1c-0.2-2.1,2.2-3.7,3.6-5c0.7-0.6,1.3-1.9,0-2.6c-1.9-1.1-3,1.7-3.4,3&#10;&#9;&#9;&#9;&#9;&#9;&#9;C583.5,307.7,582.7,310,583.6,311.1z" transform="matrix(0.9999999999999999, 0, 0, 0.9999999999999999, -2.842170943040401e-14, 0)"/><path fill="#AF5031" d="M698.1,337.9c-9.6-10.8-15.4-22-21.3-35.3c-5-11.3-11.9-21.5-23.8-26.2c-10.7-4.2-23-7.9-34.3-10.2&#10;&#9;&#9;&#9;&#9;&#9;&#9;c-7.5-1.5-16.6-1.6-23,2.6c-6.8,4.4-13.5,11.7-19.5,17.3c-3.3,3.1-3.3,6-2,9.1c0.7-1.2,1.4-2.3,2.1-3.3&#10;&#9;&#9;&#9;&#9;&#9;&#9;c1.8-2.4,4.3-3.6,5.9-6.3c2.1-3.7,4.2-7.1,7.9-9.4c4.1-2.5,9-5.8,13.9-6.1c4.3-0.2,8,0.9,12,2c6,1.7,12,2.7,18.2,3.6&#10;&#9;&#9;&#9;&#9;&#9;&#9;c6.6,1,13.4,2.2,19.3,5.3c7.3,3.9,10.1,11.6,13.4,18.8c0,0.1,0.1,0.1,0.1,0.2c-0.4,0.6-0.9,1.3-1.4,1.8&#10;&#9;&#9;&#9;&#9;&#9;&#9;c-1.8,1.9-3.8,3.7-5.8,5.5c-2.5,2.2-4.9,4.1-7.8,5.8c0.4,1.2,1,2.7,2.1,3.5c0,3.8,6.1,9.5,10.4,10.4c5.1,1,10.7-2.8,13.1-7.6&#10;&#9;&#9;&#9;&#9;&#9;&#9;c1.2,1.8,2.5,3.4,3.9,5c4.4,5,9.1,9.8,13.1,15c-3,3.5-8.7,5.4-12.9,7c-4.6,1.7-8.8,2.6-13.2,2.9c0.5,0.9,1.1,1.8,1.7,2.4&#10;&#9;&#9;&#9;&#9;&#9;&#9;c5.5,5.6,17.8,1.7,23.2-2.2C696.6,347.2,701.3,341.4,698.1,337.9z" transform="matrix(0.9999999999999999, 0, 0, 0.9999999999999999, -2.842170943040401e-14, 0)"/><path fill="#D8CCD7" d="M719.4,391c-1.6-25-20.7-53.5-29.4-77c-2.3-6.2-2.5-14.6-9.8-14.7c-3.7,0-23,15.7-27,19.1&#10;&#9;&#9;&#9;&#9;&#9;c-9.5,7.9-9.1,6.2-4.1,15.8c1.6,3.2,7,5.9,8,9.5c1.7,6.1-3.1,19.3-3.9,25.7c-4.5,36.7,1.5,64.8,16.9,97.7&#10;&#9;&#9;&#9;&#9;&#9;c9.3,19.8,17.8,46.9,34.2,61.6C707.2,482,712.1,435.1,719.4,391z" transform="matrix(0.9999999999999999, 0, 0, 0.9999999999999999, -2.842170943040401e-14, 0)"/><path fill="#BAA68D" d="M690.1,314c-2.3-6.2-2.5-14.6-9.8-14.7c-2.2,0-9.7,5.4-16.3,10.5c1.1,2.2,2.1,4.5,2.8,6.6&#10;&#9;&#9;&#9;&#9;&#9;c2.1,7.4,4.2,13.5,12.2,15.1c1.2,6.6-1.6,14-0.4,20.9c1.7,9.4,4.7,20,7.3,29.3c4,13.9,10,25.7,12.2,40.2&#10;&#9;&#9;&#9;&#9;&#9;c0.7,4.8,2.9,15.1,6.7,15.1c-0.2,27.3-5.9,53.8-10,80.6c2.9,4.1,6,7.9,9.6,11c2.9-46.8,7.7-93.7,15.1-137.8&#10;&#9;&#9;&#9;&#9;&#9;C717.8,366.1,698.7,337.5,690.1,314z" transform="matrix(0.9999999999999999, 0, 0, 0.9999999999999999, -2.842170943040401e-14, 0)"/><path fill="#AF5031" d="M494.5,410c-11.9,14-23.7,28.1-35.5,42.2c-11.7,14-24,27.9-34.1,43c-0.9,1.4,1.1,2.8,2.2,1.7&#10;&#9;&#9;&#9;&#9;&#9;c11.7-11.3,22-24.2,32.5-36.6c10.8-12.7,21.5-25.5,32.2-38.2c2.4-2.8,4.7-5.5,7.1-8.3C497.5,412.5,496,411.2,494.5,410z" transform="matrix(0.9999999999999999, 0, 0, 0.9999999999999999, -2.842170943040401e-14, 0)"/><path d="M 319.5 535.9000244140625 L 324.1000061035156 545.2000122070312 L 334.5 546.7000122070312 L 327 554 L 328.79998779296875 564.2999877929688 L 319.5 559.4000244140625 L 310.29998779296875 564.2999877929688 L 312 554 L 304.6000061035156 546.7000122070312 L 314.8999938964844 545.2000122070312 Z" fill="#F3E8A1" transform="matrix(0.9999999999999999, 0, 0, 0.9999999999999999, -2.842170943040401e-14, 0)"/><path d="M 476.1000061035156 351.1000061035156 L 475.70001220703125 361.6000061035156 L 484.1000061035156 367.79998779296875 L 474 370.6000061035156 L 470.70001220703125 380.5 L 464.8999938964844 371.8999938964844 L 454.3999938964844 371.79998779296875 L 460.8999938964844 363.6000061035156 L 457.79998779296875 353.6000061035156 L 467.6000061035156 357.20001220703125 Z" fill="#F3E8A1" transform="matrix(0.9999999999999999, 0, 0, 0.9999999999999999, -2.842170943040401e-14, 0)"/><path d="M 395.79998779296875 732.7999877929688 L 395.3999938964844 743.2000122070312 L 403.79998779296875 749.5 L 393.70001220703125 752.2999877929688 L 390.3999938964844 762.2000122070312 L 384.6000061035156 753.5999755859375 L 374.1000061035156 753.4000244140625 L 380.6000061035156 745.2000122070312 L 377.3999938964844 735.2999877929688 L 387.29998779296875 738.7999877929688 Z" fill="#F3E8A1" transform="matrix(0.9999999999999999, 0, 0, 0.9999999999999999, -2.842170943040401e-14, 0)"/><path d="M 456.70001220703125 514.2000122070312 L 461.29998779296875 523.5 L 471.6000061035156 525 L 464.20001220703125 532.2999877929688 L 465.8999938964844 542.5999755859375 L 456.70001220703125 537.7999877929688 L 447.3999938964844 542.5999755859375 L 449.20001220703125 532.2999877929688 L 441.70001220703125 525 L 452.1000061035156 523.5 Z" fill="#F3E8A1" transform="matrix(0.9999999999999999, 0, 0, 0.9999999999999999, -2.842170943040401e-14, 0)"/><path d="M 402.20001220703125 476.6000061035156 L 401.5 487.1000061035156 L 409.70001220703125 493.5 L 399.6000061035156 496.1000061035156 L 395.8999938964844 505.8999938964844 L 390.3999938964844 497 L 379.8999938964844 496.6000061035156 L 386.6000061035156 488.6000061035156 L 383.79998779296875 478.5 L 393.5 482.3999938964844 Z" fill="#F3E8A1" transform="matrix(0.9999999999999999, 0, 0, 0.9999999999999999, -2.842170943040401e-14, 0)"/><path d="M 366.70001220703125 603.5999755859375 L 375.3999938964844 609.4000244140625 L 385.1000061035156 605.5 L 382.29998779296875 615.5999755859375 L 389 623.5999755859375 L 378.5 624 L 373 632.9000244140625 L 369.29998779296875 623.0999755859375 L 359.20001220703125 620.5 L 367.3999938964844 614.0999755859375 Z" fill="#F3E8A1" transform="matrix(0.9999999999999999, 0, 0, 0.9999999999999999, -2.842170943040401e-14, 0)"/><path d="M 430.29998779296875 588.7999877929688 L 438.20001220703125 605.7000122070312 L 456.70001220703125 608.7999877929688 L 443 621.5999755859375 L 445.79998779296875 640.0999755859375 L 429.3999938964844 631 L 412.70001220703125 639.4000244140625 L 416.29998779296875 621 L 403.1000061035156 607.7000122070312 L 421.70001220703125 605.4000244140625 Z" fill="#F3E8A1" transform="matrix(0.9999999999999999, 0, 0, 0.9999999999999999, -2.842170943040401e-14, 0)"/><path d="M 464.79998779296875 665.7999877929688 L 468.6000061035156 667.2000122070312 L 471.8999938964844 664.7999877929688 L 471.79998779296875 668.9000244140625 L 475 671.2999877929688 L 471.1000061035156 672.4000244140625 L 469.79998779296875 676.2000122070312 L 467.6000061035156 672.7999877929688 L 463.5 672.7999877929688 L 466 669.5999755859375 Z" fill="#F3E8A1" transform="matrix(0.9999999999999999, 0, 0, 0.9999999999999999, -2.842170943040401e-14, 0)"/><path d="M 309.3999938964844 414.20001220703125 L 313.1000061035156 415.6000061035156 L 316.3999938964844 413.29998779296875 L 316.29998779296875 417.29998779296875 L 319.5 419.70001220703125 L 315.6000061035156 420.79998779296875 L 314.29998779296875 424.70001220703125 L 312.1000061035156 421.29998779296875 L 308 421.29998779296875 L 310.5 418.1000061035156 Z" fill="#F3E8A1" transform="matrix(0.9999999999999999, 0, 0, 0.9999999999999999, -2.842170943040401e-14, 0)"/><path d="M 491 573.7000122070312 L 494.79998779296875 575.0999755859375 L 498.1000061035156 572.7999877929688 L 498 576.7999877929688 L 501.20001220703125 579.2000122070312 L 497.29998779296875 580.2999877929688 L 496 584.0999755859375 L 493.79998779296875 580.7999877929688 L 489.70001220703125 580.7000122070312 L 492.20001220703125 577.5 Z" fill="#F3E8A1" transform="matrix(0.9999999999999999, 0, 0, 0.9999999999999999, -2.842170943040401e-14, 0)"/><path d="M 420.20001220703125 742.7000122070312 L 424 744.0999755859375 L 427.29998779296875 741.7999877929688 L 427.1000061035156 745.9000244140625 L 430.3999938964844 748.2999877929688 L 426.5 749.4000244140625 L 425.20001220703125 753.2000122070312 L 422.8999938964844 749.7999877929688 L 418.8999938964844 749.7999877929688 L 421.3999938964844 746.5999755859375 Z" fill="#F3E8A1" transform="matrix(0.9999999999999999, 0, 0, 0.9999999999999999, -2.842170943040401e-14, 0)"/><path d="M 496.79998779296875 486.5 L 500.6000061035156 487.8999938964844 L 503.8999938964844 485.6000061035156 L 503.70001220703125 489.6000061035156 L 506.8999938964844 492 L 503.1000061035156 493.1000061035156 L 501.70001220703125 496.8999938964844 L 499.5 493.6000061035156 L 495.5 493.5 L 498 490.3999938964844 Z" fill="#F3E8A1" transform="matrix(0.9999999999999999, 0, 0, 0.9999999999999999, -2.842170943040401e-14, 0)"/><path d="M 327.29998779296875 659.5 L 331.1000061035156 660.9000244140625 L 334.3999938964844 658.5999755859375 L 334.20001220703125 662.5999755859375 L 337.3999938964844 665 L 333.6000061035156 666.0999755859375 L 332.29998779296875 670 L 330 666.5999755859375 L 326 666.5 L 328.5 663.4000244140625 Z" fill="#F3E8A1" transform="matrix(0.9999999999999999, 0, 0, 0.9999999999999999, -2.842170943040401e-14, 0)"/><path d="M 437.29998779296875 717.2999877929688 L 441.1000061035156 718.7000122070312 L 444.3999938964844 716.4000244140625 L 444.20001220703125 720.5 L 447.5 722.9000244140625 L 443.6000061035156 724 L 442.29998779296875 727.7999877929688 L 440 724.4000244140625 L 436 724.4000244140625 L 438.5 721.2000122070312 Z" fill="#F3E8A1" transform="matrix(0.9999999999999999, 0, 0, 0.9999999999999999, -2.842170943040401e-14, 0)"/>
</svg>